<?xml version="1.0" encoding="utf-8"?>
<!-- Generator: Adobe Illustrator 16.0.0, SVG Export Plug-In . SVG Version: 6.00 Build 0)  -->
<!DOCTYPE svg PUBLIC "-//W3C//DTD SVG 1.1//EN" "http://www.w3.org/Graphics/SVG/1.1/DTD/svg11.dtd">
<svg version="1.1" id="Layer_1" xmlns="http://www.w3.org/2000/svg" xmlns:xlink="http://www.w3.org/1999/xlink" x="0px" y="0px"
	 width="1124px" height="774px" viewBox="0 0 1124 774" enable-background="new 0 0 1124 774" xml:space="preserve">
<circle fill="none" stroke="#D35400" stroke-width="1.4007" stroke-miterlimit="10" cx="107.291" cy="595.734" r="54.151"/>
<circle fill="none" stroke="#E67E22" stroke-width="7.0036" stroke-miterlimit="10" cx="107.659" cy="595.588" r="53.857"/>
<circle fill="none" stroke="#D35400" stroke-width="1.4007" stroke-miterlimit="10" cx="107.658" cy="593.822" r="103.3"/>
<circle fill="none" stroke="#E67E22" stroke-width="1.4007" stroke-miterlimit="10" cx="107.659" cy="593.822" r="99.106"/>
<circle fill="none" stroke="#D35400" stroke-width="1.4007" stroke-miterlimit="10" cx="107.659" cy="595.734" r="57.536"/>
<circle fill="none" stroke="#D35400" stroke-width="1.4007" stroke-miterlimit="10" cx="107.659" cy="595.588" r="49.822"/>
<circle fill="none" stroke="#D35400" stroke-width="1.4007" stroke-miterlimit="10" cx="107.365" cy="592.755" r="11.773"/>
<line fill="none" stroke="#D35400" stroke-width="1.4007" stroke-miterlimit="10" x1="105.144" y1="583.394" x2="85.292" y2="492.951"/>
<line fill="none" stroke="#D35400" stroke-width="1.4007" stroke-miterlimit="10" x1="109.738" y1="583.394" x2="124.36" y2="491.866"/>
<line fill="none" stroke="#D35400" stroke-width="1.4007" stroke-miterlimit="10" x1="112.814" y1="584.754" x2="162.973" y2="506.566"/>
<line fill="none" stroke="#D35400" stroke-width="1.4007" stroke-miterlimit="10" x1="115.678" y1="587.752" x2="191.428" y2="533.367"/>
<line fill="none" stroke="#D35400" stroke-width="1.4007" stroke-miterlimit="10" x1="117.077" y1="594.852" x2="209.325" y2="612.215"/>
<line fill="none" stroke="#D35400" stroke-width="1.4007" stroke-miterlimit="10" x1="102.062" y1="584.754" x2="47.461" y2="509.867"/>
<line fill="none" stroke="#D35400" stroke-width="1.4007" stroke-miterlimit="10" x1="99.199" y1="587.752" x2="20.559" y2="538.359"/>
<line fill="none" stroke="#D35400" stroke-width="1.4007" stroke-miterlimit="10" x1="97.848" y1="591.801" x2="5.925" y2="575.061"/>
<line fill="none" stroke="#D35400" stroke-width="1.4007" stroke-miterlimit="10" x1="98.271" y1="595.734" x2="6.509" y2="615.012"/>
<line fill="none" stroke="#D35400" stroke-width="1.4007" stroke-miterlimit="10" x1="100.211" y1="597.664" x2="25.411" y2="656.328"/>
<path fill="none" stroke="#998675" stroke-width="1.4007" stroke-miterlimit="10" d="M48.431,676.815"/>
<path fill="none" stroke="#998675" stroke-width="1.4007" stroke-miterlimit="10" d="M102.062,600.756"/>
<line fill="none" stroke="#D35400" stroke-width="1.4007" stroke-miterlimit="10" x1="108.847" y1="602.29" x2="107.659" y2="697.121"/>
<line fill="none" stroke="#D35400" stroke-width="10" stroke-miterlimit="10" x1="103.562" y1="600.091" x2="20.99" y2="776.371"/>
<line fill="none" stroke="#D35400" stroke-width="10" stroke-miterlimit="10" x1="112.773" y1="600.091" x2="196.48" y2="775.148"/>
<line fill="none" stroke="#D35400" stroke-width="1.4007" stroke-miterlimit="10" x1="115.678" y1="597.759" x2="191.115" y2="654.725"/>
<line fill="none" stroke="#D35400" stroke-width="1.4007" stroke-miterlimit="10" x1="208.401" y1="570.879" x2="117.029" y2="591.801"/>
<circle fill="#E67E22" cx="107.438" cy="592.755" r="9.638"/>
<g>
	<g>
		<defs>
			<path id="SVGID_1_" d="M132.865,514.526c0,0-0.521-1.703,0.898-2.531c0,0-2.058-2.022,0.355-3.56c0,0-0.663-3.069,2.366-3.4
				c0,0,2.838-0.896,1.773-1.629c0,0,1.452-0.409,1.547,1.412c0,0,2.049,1.032,1.931,4.036c0,0,3.028,1.131,1.23,5.672H132.865z"/>
		</defs>
		<use xlink:href="#SVGID_1_"  overflow="visible" fill="#D35400"/>
		<clipPath id="SVGID_2_">
			<use xlink:href="#SVGID_1_"  overflow="visible"/>
		</clipPath>
		<rect x="131.389" y="498.624" clip-path="url(#SVGID_2_)" fill="#D35400" width="11.035" height="10.223"/>
		<path clip-path="url(#SVGID_2_)" fill="#E67E22" d="M134.118,508.436c0,0,6.583-1.389,5.686-3.617l3.138,0.246l7.144,5.417
			l-4.637,8.775l-18.899-2.578l1.798-7.144l4.684-1.632L134.118,508.436z"/>
		<path clip-path="url(#SVGID_2_)" fill="#D35400" d="M133.763,511.995c0,0,8.141-1.332,7.976-3.414l3.922,0.694l-1.23,7.285
			l-16.084-1.018l3.902-3.902L133.763,511.995z"/>
	</g>
	<g>
		<defs>
			<path id="SVGID_3_" d="M143.235,514.526h-10.467c-0.538,0-0.974,0.453-0.974,1.013v0.408c0,0.56,0.436,1.014,0.974,1.014h0.554
				l3.245,9.582c0.128,0.688,0.729,1.208,1.455,1.208c0.733,0,1.341-0.533,1.458-1.234l3.273-9.556h0.482
				c0.537,0,0.973-0.454,0.973-1.014v-0.408C144.208,514.979,143.772,514.526,143.235,514.526z"/>
		</defs>
		<use xlink:href="#SVGID_3_"  overflow="visible" fill="#F1D6B1"/>
		<clipPath id="SVGID_4_">
			<use xlink:href="#SVGID_3_"  overflow="visible"/>
		</clipPath>
		<polygon clip-path="url(#SVGID_4_)" fill="#EECC9D" points="147.21,516.961 141.044,516.961 133.945,529.09 147.21,528.021 		"/>
	</g>
	<rect x="136" y="518" fill="#D88439" width="4" height="5"/>
</g>
<g>
	<g>
		<defs>
			<path id="SVGID_5_" d="M162.442,530.419c0,0-0.521-1.703,0.898-2.531c0,0-2.058-2.022,0.355-3.56c0,0-0.663-3.069,2.366-3.4
				c0,0,2.838-0.896,1.773-1.629c0,0,1.452-0.409,1.546,1.412c0,0,2.049,1.032,1.931,4.036c0,0,3.027,1.13,1.23,5.672H162.442z"/>
		</defs>
		<use xlink:href="#SVGID_5_"  overflow="visible" fill="#D35400"/>
		<clipPath id="SVGID_6_">
			<use xlink:href="#SVGID_5_"  overflow="visible"/>
		</clipPath>
		<rect x="160.967" y="514.517" clip-path="url(#SVGID_6_)" fill="#D35400" width="11.034" height="10.223"/>
		<path clip-path="url(#SVGID_6_)" fill="#E67E22" d="M163.696,524.328c0,0,6.583-1.39,5.685-3.617l3.137,0.246l7.144,5.417
			l-4.637,8.775l-18.899-2.578l1.797-7.144l4.684-1.632L163.696,524.328z"/>
		<path clip-path="url(#SVGID_6_)" fill="#D35400" d="M163.341,527.888c0,0,8.141-1.333,7.975-3.414l3.923,0.694l-1.23,7.285
			l-16.084-1.018l3.903-3.902L163.341,527.888z"/>
	</g>
	<g>
		<defs>
			<path id="SVGID_7_" d="M172.813,530.419h-10.467c-0.537,0-0.974,0.453-0.974,1.013v0.408c0,0.56,0.437,1.013,0.974,1.013h0.554
				l3.245,9.583c0.128,0.687,0.729,1.208,1.455,1.208c0.733,0,1.341-0.534,1.458-1.234l3.273-9.557h0.481
				c0.538,0,0.973-0.453,0.973-1.013v-0.408C173.786,530.872,173.35,530.419,172.813,530.419z"/>
		</defs>
		<use xlink:href="#SVGID_7_"  overflow="visible" fill="#F1D6B1"/>
		<clipPath id="SVGID_8_">
			<use xlink:href="#SVGID_7_"  overflow="visible"/>
		</clipPath>
		<polygon clip-path="url(#SVGID_8_)" fill="#EECC9D" points="176.788,532.853 170.622,532.853 163.521,544.982 176.788,543.914 		
			"/>
	</g>
	<rect x="166" y="534" fill="#D88439" width="3" height="5"/>
</g>
<g>
	<g>
		<defs>
			<path id="SVGID_9_" d="M183.19,556.905c0,0-0.52-1.702,0.898-2.53c0,0-2.058-2.022,0.355-3.561c0,0-0.663-3.069,2.365-3.399
				c0,0,2.839-0.896,1.774-1.63c0,0,1.451-0.408,1.545,1.413c0,0,2.05,1.032,1.932,4.035c0,0,3.028,1.131,1.23,5.672H183.19z"/>
		</defs>
		<use xlink:href="#SVGID_9_"  overflow="visible" fill="#D35400"/>
		<clipPath id="SVGID_10_">
			<use xlink:href="#SVGID_9_"  overflow="visible"/>
		</clipPath>
		<rect x="181.715" y="541.004" clip-path="url(#SVGID_10_)" fill="#D35400" width="11.034" height="10.223"/>
		<path clip-path="url(#SVGID_10_)" fill="#E67E22" d="M184.444,550.814c0,0,6.583-1.389,5.684-3.616l3.138,0.246l7.144,5.417
			l-4.637,8.775l-18.899-2.578l1.798-7.144l4.683-1.633L184.444,550.814z"/>
		<path clip-path="url(#SVGID_10_)" fill="#D35400" d="M184.089,554.375c0,0,8.141-1.333,7.976-3.414l3.923,0.693l-1.23,7.285
			l-16.084-1.017l3.903-3.903L184.089,554.375z"/>
	</g>
	<g>
		<defs>
			<path id="SVGID_11_" d="M193.561,556.905h-10.466c-0.539,0-0.975,0.454-0.975,1.014v0.408c0,0.559,0.436,1.013,0.975,1.013h0.554
				l3.245,9.582c0.128,0.688,0.73,1.209,1.455,1.209c0.734,0,1.341-0.534,1.459-1.234l3.273-9.557h0.481
				c0.538,0,0.974-0.454,0.974-1.013v-0.408C194.535,557.359,194.099,556.905,193.561,556.905z"/>
		</defs>
		<use xlink:href="#SVGID_11_"  overflow="visible" fill="#F1D6B1"/>
		<clipPath id="SVGID_12_">
			<use xlink:href="#SVGID_11_"  overflow="visible"/>
		</clipPath>
		<polygon clip-path="url(#SVGID_12_)" fill="#EECC9D" points="197.536,559.34 191.369,559.34 184.271,571.469 197.536,570.4 		"/>
	</g>
	<rect x="186" y="560" fill="#D88439" width="3" height="5"/>
</g>
<g>
	<g>
		<defs>
			<path id="SVGID_13_" d="M101.081,509.67c0,0-0.521-1.703,0.898-2.53c0,0-2.058-2.022,0.354-3.56c0,0-0.662-3.069,2.366-3.4
				c0,0,2.838-0.896,1.773-1.629c0,0,1.451-0.409,1.546,1.411c0,0,2.049,1.032,1.931,4.037c0,0,3.028,1.13,1.23,5.671H101.081z"/>
		</defs>
		<use xlink:href="#SVGID_13_"  overflow="visible" fill="#D35400"/>
		<clipPath id="SVGID_14_">
			<use xlink:href="#SVGID_13_"  overflow="visible"/>
		</clipPath>
		<rect x="99.604" y="493.768" clip-path="url(#SVGID_14_)" fill="#D35400" width="11.035" height="10.224"/>
		<path clip-path="url(#SVGID_14_)" fill="#E67E22" d="M102.333,503.58c0,0,6.583-1.39,5.686-3.618l3.137,0.247l7.144,5.417
			l-4.637,8.775l-18.899-2.578l1.797-7.144l4.684-1.632L102.333,503.58z"/>
		<path clip-path="url(#SVGID_14_)" fill="#D35400" d="M101.979,507.14c0,0,8.141-1.333,7.975-3.415l3.923,0.694l-1.23,7.285
			l-16.084-1.017l3.903-3.902L101.979,507.14z"/>
	</g>
	<g>
		<defs>
			<path id="SVGID_15_" d="M111.451,509.67h-10.467c-0.538,0-0.974,0.454-0.974,1.014v0.408c0,0.56,0.436,1.013,0.974,1.013h0.554
				l3.245,9.582c0.128,0.688,0.729,1.209,1.455,1.209c0.734,0,1.341-0.534,1.459-1.234l3.272-9.557h0.482
				c0.537,0,0.973-0.453,0.973-1.013v-0.408C112.424,510.124,111.988,509.67,111.451,509.67z"/>
		</defs>
		<use xlink:href="#SVGID_15_"  overflow="visible" fill="#F1D6B1"/>
		<clipPath id="SVGID_16_">
			<use xlink:href="#SVGID_15_"  overflow="visible"/>
		</clipPath>
		<polygon clip-path="url(#SVGID_16_)" fill="#EECC9D" points="115.426,512.104 109.259,512.104 102.16,524.233 115.426,523.166 		
			"/>
	</g>
	<rect x="104" y="513" fill="#D88439" width="3" height="5"/>
</g>
<g>
	<g>
		<defs>
			<path id="SVGID_17_" d="M67.971,515.851c0,0-0.52-1.703,0.899-2.531c0,0-2.058-2.021,0.354-3.56c0,0-0.662-3.069,2.366-3.4
				c0,0,2.838-0.896,1.774-1.629c0,0,1.45-0.409,1.545,1.412c0,0,2.05,1.033,1.932,4.036c0,0,3.027,1.131,1.23,5.672H67.971z"/>
		</defs>
		<use xlink:href="#SVGID_17_"  overflow="visible" fill="#D35400"/>
		<clipPath id="SVGID_18_">
			<use xlink:href="#SVGID_17_"  overflow="visible"/>
		</clipPath>
		<rect x="66.496" y="499.948" clip-path="url(#SVGID_18_)" fill="#D35400" width="11.035" height="10.223"/>
		<path clip-path="url(#SVGID_18_)" fill="#E67E22" d="M69.225,509.76c0,0,6.583-1.389,5.685-3.617l3.138,0.246l7.144,5.417
			l-4.636,8.775l-18.899-2.577l1.798-7.145l4.684-1.632L69.225,509.76z"/>
		<path clip-path="url(#SVGID_18_)" fill="#D35400" d="M68.871,513.319c0,0,8.14-1.332,7.974-3.414l3.923,0.694l-1.23,7.285
			l-16.084-1.017l3.903-3.903L68.871,513.319z"/>
	</g>
	<g>
		<defs>
			<path id="SVGID_19_" d="M78.342,515.851H67.875c-0.538,0-0.974,0.453-0.974,1.013v0.409c0,0.559,0.436,1.013,0.974,1.013h0.554
				l3.245,9.582c0.128,0.688,0.73,1.209,1.455,1.209c0.733,0,1.341-0.534,1.458-1.234l3.273-9.557h0.482
				c0.537,0,0.974-0.454,0.974-1.013v-0.409C79.315,516.304,78.879,515.851,78.342,515.851z"/>
		</defs>
		<use xlink:href="#SVGID_19_"  overflow="visible" fill="#F1D6B1"/>
		<clipPath id="SVGID_20_">
			<use xlink:href="#SVGID_19_"  overflow="visible"/>
		</clipPath>
		<polygon clip-path="url(#SVGID_20_)" fill="#EECC9D" points="82.317,518.285 76.15,518.285 69.051,530.414 82.317,529.346 		"/>
	</g>
	<rect x="71" y="520" fill="#D88439" width="3" height="4"/>
</g>
<g>
	<g>
		<defs>
			<path id="SVGID_21_" d="M40.601,533.95c0,0-0.521-1.703,0.899-2.53c0,0-2.058-2.022,0.355-3.561c0,0-0.663-3.069,2.366-3.4
				c0,0,2.838-0.896,1.773-1.629c0,0,1.451-0.409,1.546,1.412c0,0,2.05,1.032,1.931,4.036c0,0,3.028,1.13,1.23,5.672H40.601z"/>
		</defs>
		<use xlink:href="#SVGID_21_"  overflow="visible" fill="#D35400"/>
		<clipPath id="SVGID_22_">
			<use xlink:href="#SVGID_21_"  overflow="visible"/>
		</clipPath>
		<rect x="39.125" y="518.048" clip-path="url(#SVGID_22_)" fill="#D35400" width="11.034" height="10.223"/>
		<path clip-path="url(#SVGID_22_)" fill="#E67E22" d="M41.855,527.859c0,0,6.583-1.389,5.685-3.617l3.138,0.246l7.144,5.417
			l-4.636,8.775l-18.899-2.577l1.797-7.145l4.684-1.632L41.855,527.859z"/>
		<path clip-path="url(#SVGID_22_)" fill="#D35400" d="M41.5,531.42c0,0,8.141-1.333,7.975-3.415l3.923,0.694l-1.229,7.285
			l-16.085-1.017l3.903-3.903L41.5,531.42z"/>
	</g>
	<g>
		<defs>
			<path id="SVGID_23_" d="M50.972,533.95H40.505c-0.538,0-0.974,0.454-0.974,1.013v0.408c0,0.56,0.436,1.014,0.974,1.014h0.554
				l3.245,9.582c0.128,0.687,0.729,1.208,1.455,1.208c0.733,0,1.341-0.534,1.458-1.233l3.273-9.557h0.481
				c0.538,0,0.973-0.454,0.973-1.014v-0.408C51.945,534.404,51.509,533.95,50.972,533.95z"/>
		</defs>
		<use xlink:href="#SVGID_23_"  overflow="visible" fill="#F1D6B1"/>
		<clipPath id="SVGID_24_">
			<use xlink:href="#SVGID_23_"  overflow="visible"/>
		</clipPath>
		<polygon clip-path="url(#SVGID_24_)" fill="#EECC9D" points="54.947,536.385 48.781,536.385 41.682,548.514 54.947,547.445 		"/>
	</g>
	<rect x="44" y="537" fill="#D88439" width="3" height="4"/>
</g>
<g>
	<g>
		<defs>
			<path id="SVGID_25_" d="M20.295,560.438c0,0-0.521-1.703,0.898-2.531c0,0-2.058-2.022,0.354-3.56c0,0-0.662-3.069,2.366-3.4
				c0,0,2.838-0.896,1.774-1.629c0,0,1.451-0.409,1.546,1.412c0,0,2.049,1.032,1.931,4.036c0,0,3.027,1.131,1.23,5.672H20.295z"/>
		</defs>
		<use xlink:href="#SVGID_25_"  overflow="visible" fill="#D35400"/>
		<clipPath id="SVGID_26_">
			<use xlink:href="#SVGID_25_"  overflow="visible"/>
		</clipPath>
		<rect x="18.818" y="544.535" clip-path="url(#SVGID_26_)" fill="#D35400" width="11.035" height="10.223"/>
		<path clip-path="url(#SVGID_26_)" fill="#E67E22" d="M21.548,554.347c0,0,6.584-1.39,5.686-3.617l3.137,0.246l7.144,5.417
			l-4.636,8.775l-18.899-2.578l1.797-7.144l4.684-1.632L21.548,554.347z"/>
		<path clip-path="url(#SVGID_26_)" fill="#D35400" d="M21.193,557.906c0,0,8.141-1.333,7.975-3.414l3.923,0.694l-1.23,7.285
			l-16.085-1.017l3.903-3.904L21.193,557.906z"/>
	</g>
	<g>
		<defs>
			<path id="SVGID_27_" d="M30.665,560.438H20.199c-0.538,0-0.974,0.453-0.974,1.013v0.408c0,0.56,0.436,1.013,0.974,1.013h0.553
				l3.245,9.583c0.128,0.687,0.729,1.208,1.455,1.208c0.733,0,1.341-0.534,1.458-1.234l3.273-9.557h0.482
				c0.537,0,0.973-0.453,0.973-1.013v-0.408C31.638,560.891,31.202,560.438,30.665,560.438z"/>
		</defs>
		<use xlink:href="#SVGID_27_"  overflow="visible" fill="#F1D6B1"/>
		<clipPath id="SVGID_28_">
			<use xlink:href="#SVGID_27_"  overflow="visible"/>
		</clipPath>
		<polygon clip-path="url(#SVGID_28_)" fill="#EECC9D" points="34.64,562.871 28.474,562.871 21.375,575.001 34.64,573.933 		"/>
	</g>
	<rect x="23" y="564" fill="#D88439" width="4" height="5"/>
</g>
<g>
	<g>
		<defs>
			<path id="SVGID_29_" d="M14.114,594.43c0,0-0.521-1.703,0.899-2.531c0,0-2.058-2.022,0.355-3.561c0,0-0.663-3.069,2.365-3.399
				c0,0,2.838-0.896,1.773-1.629c0,0,1.452-0.41,1.547,1.411c0,0,2.048,1.033,1.931,4.037c0,0,3.027,1.13,1.23,5.672H14.114z"/>
		</defs>
		<use xlink:href="#SVGID_29_"  overflow="visible" fill="#D35400"/>
		<clipPath id="SVGID_30_">
			<use xlink:href="#SVGID_29_"  overflow="visible"/>
		</clipPath>
		<rect x="12.639" y="578.527" clip-path="url(#SVGID_30_)" fill="#D35400" width="11.035" height="10.223"/>
		<path clip-path="url(#SVGID_30_)" fill="#E67E22" d="M15.368,588.338c0,0,6.583-1.389,5.685-3.617l3.137,0.247l7.144,5.417
			l-4.637,8.775l-18.899-2.578l1.798-7.144l4.683-1.632L15.368,588.338z"/>
		<path clip-path="url(#SVGID_30_)" fill="#D35400" d="M15.013,591.898c0,0,8.141-1.333,7.975-3.415l3.922,0.694l-1.229,7.285
			l-16.084-1.017l3.903-3.903L15.013,591.898z"/>
	</g>
	<g>
		<defs>
			<path id="SVGID_31_" d="M24.484,594.43H14.018c-0.538,0-0.974,0.453-0.974,1.013v0.408c0,0.559,0.436,1.013,0.974,1.013h0.553
				l3.245,9.582c0.128,0.688,0.73,1.209,1.455,1.209c0.733,0,1.341-0.535,1.458-1.234l3.273-9.557h0.481
				c0.538,0,0.974-0.454,0.974-1.013v-0.408C25.458,594.883,25.022,594.43,24.484,594.43z"/>
		</defs>
		<use xlink:href="#SVGID_31_"  overflow="visible" fill="#F1D6B1"/>
		<clipPath id="SVGID_32_">
			<use xlink:href="#SVGID_31_"  overflow="visible"/>
		</clipPath>
		<polygon clip-path="url(#SVGID_32_)" fill="#EECC9D" points="28.46,596.863 22.293,596.863 15.194,608.992 28.46,607.925 		"/>
	</g>
	<rect x="17" y="598" fill="#D88439" width="4" height="5"/>
</g>
<g>
	<g>
		<defs>
			<path id="SVGID_33_" d="M22.06,630.628c0,0-0.52-1.703,0.899-2.53c0,0-2.059-2.022,0.354-3.561c0,0-0.663-3.068,2.365-3.399
				c0,0,2.838-0.896,1.774-1.63c0,0,1.451-0.409,1.546,1.413c0,0,2.049,1.032,1.931,4.036c0,0,3.028,1.13,1.23,5.671H22.06z"/>
		</defs>
		<use xlink:href="#SVGID_33_"  overflow="visible" fill="#D35400"/>
		<clipPath id="SVGID_34_">
			<use xlink:href="#SVGID_33_"  overflow="visible"/>
		</clipPath>
		<rect x="20.584" y="614.726" clip-path="url(#SVGID_34_)" fill="#D35400" width="11.035" height="10.224"/>
		<path clip-path="url(#SVGID_34_)" fill="#E67E22" d="M23.314,624.537c0,0,6.583-1.389,5.685-3.616l3.138,0.246l7.143,5.417
			l-4.636,8.775l-18.899-2.578l1.798-7.144l4.684-1.633L23.314,624.537z"/>
		<path clip-path="url(#SVGID_34_)" fill="#D35400" d="M22.959,628.098c0,0,8.14-1.333,7.975-3.414l3.923,0.693l-1.23,7.285
			l-16.084-1.017l3.902-3.903L22.959,628.098z"/>
	</g>
	<g>
		<defs>
			<path id="SVGID_35_" d="M32.431,630.628H21.964c-0.538,0-0.974,0.454-0.974,1.014v0.408c0,0.559,0.436,1.013,0.974,1.013h0.554
				l3.245,9.582c0.128,0.688,0.729,1.209,1.455,1.209c0.733,0,1.34-0.535,1.458-1.234l3.273-9.557h0.481
				c0.538,0,0.974-0.454,0.974-1.013v-0.408C33.404,631.082,32.968,630.628,32.431,630.628z"/>
		</defs>
		<use xlink:href="#SVGID_35_"  overflow="visible" fill="#F1D6B1"/>
		<clipPath id="SVGID_36_">
			<use xlink:href="#SVGID_35_"  overflow="visible"/>
		</clipPath>
		<polygon clip-path="url(#SVGID_36_)" fill="#EECC9D" points="36.406,633.063 30.24,633.063 23.14,645.191 36.406,644.123 		"/>
	</g>
	<rect x="26" y="634" fill="#D88439" width="2" height="4"/>
</g>
<g>
	<g>
		<defs>
			<path id="SVGID_37_" d="M46.782,655.35c0,0-0.521-1.703,0.899-2.53c0,0-2.058-2.022,0.354-3.561c0,0-0.663-3.069,2.365-3.4
				c0,0,2.839-0.896,1.774-1.63c0,0,1.451-0.408,1.546,1.413c0,0,2.049,1.032,1.932,4.036c0,0,3.028,1.13,1.23,5.672H46.782z"/>
		</defs>
		<use xlink:href="#SVGID_37_"  overflow="visible" fill="#D35400"/>
		<clipPath id="SVGID_38_">
			<use xlink:href="#SVGID_37_"  overflow="visible"/>
		</clipPath>
		<rect x="45.306" y="639.447" clip-path="url(#SVGID_38_)" fill="#D35400" width="11.034" height="10.223"/>
		<path clip-path="url(#SVGID_38_)" fill="#E67E22" d="M48.035,649.259c0,0,6.583-1.389,5.685-3.617l3.138,0.246l7.144,5.417
			l-4.636,8.775l-18.899-2.578l1.798-7.144l4.684-1.631L48.035,649.259z"/>
		<path clip-path="url(#SVGID_38_)" fill="#D35400" d="M47.681,652.819c0,0,8.141-1.333,7.975-3.415l3.923,0.693l-1.23,7.287
			l-16.084-1.018l3.903-3.903L47.681,652.819z"/>
	</g>
	<g>
		<defs>
			<path id="SVGID_39_" d="M57.151,655.35H46.686c-0.538,0-0.974,0.453-0.974,1.013v0.408c0,0.56,0.436,1.013,0.974,1.013h0.554
				l3.245,9.582c0.128,0.688,0.73,1.209,1.455,1.209c0.734,0,1.341-0.534,1.458-1.234l3.272-9.557h0.481
				c0.538,0,0.974-0.453,0.974-1.013v-0.408C58.125,655.803,57.689,655.35,57.151,655.35z"/>
		</defs>
		<use xlink:href="#SVGID_39_"  overflow="visible" fill="#F1D6B1"/>
		<clipPath id="SVGID_40_">
			<use xlink:href="#SVGID_39_"  overflow="visible"/>
		</clipPath>
		<polygon clip-path="url(#SVGID_40_)" fill="#EECC9D" points="61.127,657.783 54.961,657.783 47.861,669.913 61.127,668.845 		"/>
	</g>
	<rect x="50" y="658" fill="#D88439" width="4" height="5"/>
</g>
<g>
	<g>
		<defs>
			<path id="SVGID_41_" d="M82.098,674.332c0,0-0.52-1.703,0.899-2.531c0,0-2.059-2.022,0.355-3.56c0,0-0.663-3.069,2.365-3.4
				c0,0,2.838-0.896,1.773-1.629c0,0,1.451-0.409,1.546,1.413c0,0,2.05,1.031,1.931,4.036c0,0,3.027,1.13,1.231,5.671H82.098z"/>
		</defs>
		<use xlink:href="#SVGID_41_"  overflow="visible" fill="#D35400"/>
		<clipPath id="SVGID_42_">
			<use xlink:href="#SVGID_41_"  overflow="visible"/>
		</clipPath>
		<rect x="80.623" y="658.43" clip-path="url(#SVGID_42_)" fill="#D35400" width="11.035" height="10.224"/>
		<path clip-path="url(#SVGID_42_)" fill="#E67E22" d="M83.352,668.241c0,0,6.583-1.389,5.685-3.616l3.138,0.245l7.143,5.417
			l-4.636,8.775l-18.9-2.577l1.798-7.145l4.683-1.632L83.352,668.241z"/>
		<path clip-path="url(#SVGID_42_)" fill="#D35400" d="M82.997,671.801c0,0,8.14-1.333,7.975-3.414l3.922,0.694l-1.229,7.285
			L77.58,675.35l3.902-3.904L82.997,671.801z"/>
	</g>
	<g>
		<defs>
			<path id="SVGID_43_" d="M92.468,674.332H82.001c-0.538,0-0.974,0.453-0.974,1.014v0.408c0,0.558,0.436,1.012,0.974,1.012h0.554
				l3.246,9.583c0.127,0.688,0.729,1.208,1.454,1.208c0.733,0,1.341-0.534,1.459-1.234l3.272-9.557h0.482
				c0.537,0,0.973-0.454,0.973-1.012v-0.408C93.441,674.785,93.005,674.332,92.468,674.332z"/>
		</defs>
		<use xlink:href="#SVGID_43_"  overflow="visible" fill="#F1D6B1"/>
		<clipPath id="SVGID_44_">
			<use xlink:href="#SVGID_43_"  overflow="visible"/>
		</clipPath>
		<polygon clip-path="url(#SVGID_44_)" fill="#EECC9D" points="96.443,676.766 90.277,676.766 83.177,688.896 96.443,687.827 		"/>
	</g>
	<rect x="86" y="677" fill="#D88439" width="3" height="5"/>
</g>
<g>
	<g>
		<defs>
			<path id="SVGID_45_" d="M121.387,673.449c0,0-0.521-1.703,0.898-2.531c0,0-2.058-2.022,0.355-3.56c0,0-0.663-3.069,2.365-3.4
				c0,0,2.838-0.896,1.773-1.629c0,0,1.451-0.409,1.546,1.413c0,0,2.05,1.031,1.931,4.035c0,0,3.028,1.13,1.231,5.672H121.387z"/>
		</defs>
		<use xlink:href="#SVGID_45_"  overflow="visible" fill="#D35400"/>
		<clipPath id="SVGID_46_">
			<use xlink:href="#SVGID_45_"  overflow="visible"/>
		</clipPath>
		<rect x="119.912" y="657.546" clip-path="url(#SVGID_46_)" fill="#D35400" width="11.035" height="10.224"/>
		<path clip-path="url(#SVGID_46_)" fill="#E67E22" d="M122.641,667.358c0,0,6.583-1.389,5.685-3.616l3.138,0.246l7.143,5.415
			l-4.636,8.776l-18.9-2.578l1.798-7.144l4.684-1.632L122.641,667.358z"/>
		<path clip-path="url(#SVGID_46_)" fill="#D35400" d="M122.286,670.918c0,0,8.141-1.333,7.976-3.414l3.922,0.693l-1.23,7.286
			l-16.084-1.018l3.903-3.902L122.286,670.918z"/>
	</g>
	<g>
		<defs>
			<path id="SVGID_47_" d="M131.757,673.449h-10.467c-0.538,0-0.974,0.453-0.974,1.014v0.407c0,0.56,0.436,1.013,0.974,1.013h0.554
				l3.245,9.583c0.128,0.687,0.73,1.207,1.455,1.207c0.733,0,1.341-0.533,1.458-1.233l3.273-9.557h0.481
				c0.538,0,0.973-0.453,0.973-1.013v-0.407C132.73,673.902,132.295,673.449,131.757,673.449z"/>
		</defs>
		<use xlink:href="#SVGID_47_"  overflow="visible" fill="#F1D6B1"/>
		<clipPath id="SVGID_48_">
			<use xlink:href="#SVGID_47_"  overflow="visible"/>
		</clipPath>
		<polygon clip-path="url(#SVGID_48_)" fill="#EECC9D" points="135.733,675.883 129.566,675.883 122.467,688.013 135.733,686.944 		
			"/>
	</g>
	<rect x="124" y="677" fill="#D88439" width="4" height="4"/>
</g>
<g>
	<g>
		<defs>
			<path id="SVGID_49_" d="M191.136,590.897c0,0-0.52-1.703,0.899-2.53c0,0-2.058-2.023,0.355-3.561c0,0-0.663-3.069,2.366-3.4
				c0,0,2.838-0.896,1.773-1.629c0,0,1.452-0.409,1.546,1.412c0,0,2.049,1.032,1.932,4.036c0,0,3.027,1.131,1.23,5.672H191.136z"/>
		</defs>
		<use xlink:href="#SVGID_49_"  overflow="visible" fill="#D35400"/>
		<clipPath id="SVGID_50_">
			<use xlink:href="#SVGID_49_"  overflow="visible"/>
		</clipPath>
		<rect x="189.661" y="574.995" clip-path="url(#SVGID_50_)" fill="#D35400" width="11.035" height="10.223"/>
		<path clip-path="url(#SVGID_50_)" fill="#E67E22" d="M192.39,584.807c0,0,6.583-1.389,5.685-3.617l3.138,0.246l7.143,5.417
			l-4.636,8.776l-18.899-2.578l1.797-7.145l4.684-1.631L192.39,584.807z"/>
		<path clip-path="url(#SVGID_50_)" fill="#D35400" d="M192.035,588.367c0,0,8.141-1.333,7.975-3.415l3.922,0.694l-1.229,7.285
			l-16.085-1.017l3.903-3.903L192.035,588.367z"/>
	</g>
	<g>
		<defs>
			<path id="SVGID_51_" d="M201.507,590.897h-10.466c-0.538,0-0.974,0.454-0.974,1.013v0.408c0,0.56,0.436,1.013,0.974,1.013h0.553
				l3.245,9.583c0.128,0.688,0.73,1.209,1.456,1.209c0.732,0,1.34-0.535,1.458-1.234l3.273-9.558h0.481
				c0.538,0,0.974-0.453,0.974-1.013v-0.408C202.48,591.352,202.044,590.897,201.507,590.897z"/>
		</defs>
		<use xlink:href="#SVGID_51_"  overflow="visible" fill="#F1D6B1"/>
		<clipPath id="SVGID_52_">
			<use xlink:href="#SVGID_51_"  overflow="visible"/>
		</clipPath>
		<polygon clip-path="url(#SVGID_52_)" fill="#EECC9D" points="205.482,593.331 199.316,593.331 192.216,605.461 205.482,604.393 		
			"/>
	</g>
	<rect x="195" y="594" fill="#D88439" width="3" height="5"/>
</g>
<g>
	<g>
		<defs>
			<path id="SVGID_53_" d="M182.627,627.455c0,0-0.521-1.702,0.899-2.529c0,0-2.058-2.023,0.354-3.561c0,0-0.663-3.07,2.366-3.4
				c0,0,2.839-0.896,1.773-1.629c0,0,1.452-0.409,1.546,1.412c0,0,2.049,1.032,1.932,4.036c0,0,3.027,1.13,1.23,5.671H182.627z"/>
		</defs>
		<use xlink:href="#SVGID_53_"  overflow="visible" fill="#D35400"/>
		<clipPath id="SVGID_54_">
			<use xlink:href="#SVGID_53_"  overflow="visible"/>
		</clipPath>
		<rect x="181.151" y="611.554" clip-path="url(#SVGID_54_)" fill="#D35400" width="11.035" height="10.223"/>
		<path clip-path="url(#SVGID_54_)" fill="#E67E22" d="M183.88,621.365c0,0,6.584-1.39,5.686-3.617l3.138,0.246l7.143,5.417
			l-4.636,8.775l-18.899-2.578l1.798-7.144l4.684-1.632L183.88,621.365z"/>
		<path clip-path="url(#SVGID_54_)" fill="#D35400" d="M183.526,624.926c0,0,8.141-1.334,7.975-3.415l3.922,0.694l-1.229,7.285
			l-16.084-1.018l3.902-3.903L183.526,624.926z"/>
	</g>
	<g>
		<defs>
			<path id="SVGID_55_" d="M192.998,627.455h-10.466c-0.538,0-0.974,0.454-0.974,1.014v0.408c0,0.56,0.436,1.013,0.974,1.013h0.553
				l3.245,9.583c0.128,0.687,0.73,1.209,1.456,1.209c0.732,0,1.34-0.535,1.458-1.234l3.273-9.558h0.482
				c0.538,0,0.973-0.453,0.973-1.013v-0.408C193.971,627.909,193.535,627.455,192.998,627.455z"/>
		</defs>
		<use xlink:href="#SVGID_55_"  overflow="visible" fill="#F1D6B1"/>
		<clipPath id="SVGID_56_">
			<use xlink:href="#SVGID_55_"  overflow="visible"/>
		</clipPath>
		<polygon clip-path="url(#SVGID_56_)" fill="#EECC9D" points="196.973,629.89 190.807,629.89 183.707,642.02 196.973,640.951 		"/>
	</g>
	<rect x="186" y="631" fill="#D88439" width="3" height="5"/>
</g>
<g>
	<g>
		<defs>
			<path id="SVGID_57_" d="M158.045,657.711c0,0-0.521-1.703,0.898-2.53c0,0-2.058-2.023,0.355-3.561c0,0-0.663-3.069,2.366-3.4
				c0,0,2.838-0.896,1.773-1.629c0,0,1.451-0.409,1.546,1.413c0,0,2.049,1.031,1.932,4.035c0,0,3.027,1.131,1.229,5.672H158.045z"/>
		</defs>
		<use xlink:href="#SVGID_57_"  overflow="visible" fill="#D35400"/>
		<clipPath id="SVGID_58_">
			<use xlink:href="#SVGID_57_"  overflow="visible"/>
		</clipPath>
		<rect x="156.569" y="641.809" clip-path="url(#SVGID_58_)" fill="#D35400" width="11.035" height="10.223"/>
		<path clip-path="url(#SVGID_58_)" fill="#E67E22" d="M159.298,651.62c0,0,6.583-1.39,5.685-3.616l3.138,0.246l7.144,5.416
			l-4.636,8.776l-18.899-2.578l1.797-7.144l4.684-1.632L159.298,651.62z"/>
		<path clip-path="url(#SVGID_58_)" fill="#D35400" d="M158.943,655.181c0,0,8.141-1.333,7.975-3.415l3.922,0.694l-1.229,7.285
			l-16.085-1.017l3.903-3.904L158.943,655.181z"/>
	</g>
	<g>
		<defs>
			<path id="SVGID_59_" d="M168.415,657.711h-10.466c-0.538,0-0.974,0.454-0.974,1.013v0.408c0,0.56,0.436,1.013,0.974,1.013h0.553
				l3.245,9.583c0.128,0.687,0.729,1.209,1.455,1.209c0.733,0,1.341-0.534,1.458-1.234l3.273-9.558h0.481
				c0.538,0,0.974-0.453,0.974-1.013v-0.408C169.389,658.165,168.953,657.711,168.415,657.711z"/>
		</defs>
		<use xlink:href="#SVGID_59_"  overflow="visible" fill="#F1D6B1"/>
		<clipPath id="SVGID_60_">
			<use xlink:href="#SVGID_59_"  overflow="visible"/>
		</clipPath>
		<polygon clip-path="url(#SVGID_60_)" fill="#EECC9D" points="172.391,660.145 166.225,660.145 159.125,672.275 172.391,671.206 		
			"/>
	</g>
	<rect x="161" y="661" fill="#D88439" width="4" height="5"/>
</g>
<linearGradient id="SVGID_61_" gradientUnits="userSpaceOnUse" x1="379.2969" y1="715.3477" x2="379.2969" y2="715.3477">
	<stop  offset="0.0087" style="stop-color:#457393;stop-opacity:0"/>
	<stop  offset="0.1095" style="stop-color:#426E8C;stop-opacity:0.1292"/>
	<stop  offset="0.2511" style="stop-color:#39607A;stop-opacity:0.311"/>
	<stop  offset="0.4169" style="stop-color:#2B485C;stop-opacity:0.5238"/>
	<stop  offset="0.6012" style="stop-color:#182732;stop-opacity:0.7602"/>
	<stop  offset="0.7881" style="stop-color:#000000"/>
</linearGradient>
<path fill="url(#SVGID_61_)" d="M379.297,715.348"/>
<g>
	<rect x="77" y="679" fill="#707A90" width="98" height="14"/>
	<rect x="77" y="693" fill="#8088A6" width="98" height="82"/>
	<g>
		<rect x="78" y="699" fill="#8696B4" width="46" height="2"/>
		<rect x="78" y="703" fill="#8696B4" width="46" height="2"/>
		<rect x="78" y="708" fill="#8696B4" width="46" height="3"/>
		<rect x="78" y="713" fill="#8696B4" width="46" height="2"/>
		<rect x="78" y="718" fill="#8696B4" width="46" height="2"/>
		<rect x="78" y="723" fill="#8696B4" width="46" height="2"/>
		<rect x="78" y="728" fill="#8696B4" width="46" height="2"/>
		<rect x="78" y="733" fill="#8696B4" width="46" height="2"/>
		<rect x="78" y="738" fill="#8696B4" width="46" height="2"/>
		<rect x="78" y="742" fill="#8696B4" width="46" height="3"/>
		<rect x="78" y="748" fill="#8696B4" width="46" height="2"/>
		<rect x="78" y="752" fill="#8696B4" width="46" height="2"/>
		<rect x="78" y="757" fill="#8696B4" width="46" height="3"/>
		<rect x="78" y="762" fill="#8696B4" width="46" height="2"/>
		<rect x="78" y="767" fill="#8696B4" width="46" height="2"/>
		<rect x="78" y="772" fill="#8696B4" width="46" height="2"/>
	</g>
	<rect x="81" y="688" fill="#92A2BD" width="91" height="2"/>
	<g>
		<rect x="85" y="705" fill="#9DAEC5" width="10" height="16"/>
		<polygon fill="#6E788D" points="95,721 85.215,721 95,705.585 		"/>
		<path fill="#92A2BD" d="M83,703v21h14v-21H83z M95,721H85v-7h10V721z M95,712H85v-7h10V712z"/>
		<rect x="81" y="724" fill="#6E788D" width="18" height="3"/>
	</g>
	<g>
		<rect x="117" y="705" fill="#9DAEC5" width="10" height="16"/>
		<polygon fill="#6E788D" points="127,721 117.216,721 127,705.585 		"/>
		<path fill="#92A2BD" d="M115,703v21h14v-21H115z M127,721h-10v-7h10V721z M127,712h-10v-7h10V712z"/>
		<rect x="113" y="724" fill="#6E788D" width="18" height="3"/>
	</g>
	<g>
		<rect x="117" y="740" fill="#9DAEC5" width="10" height="15"/>
		<polygon fill="#6E788D" points="127,755 117.216,755 127,739.755 		"/>
		<path fill="#92A2BD" d="M115,738v20h14v-20H115z M127,755h-10v-7h10V755z M127,746h-10v-6h10V746z"/>
		<rect x="113" y="758" fill="#6E788D" width="18" height="3"/>
	</g>
	<g>
		<rect x="149" y="740" fill="#9DAEC5" width="9" height="15"/>
		<polygon fill="#6E788D" points="158,755 148.675,755 158,739.755 		"/>
		<path fill="#92A2BD" d="M147,738v20h13v-20H147z M158,755h-9v-7h9V755z M158,746h-9v-6h9V746z"/>
		<rect x="144" y="758" fill="#6E788D" width="19" height="3"/>
	</g>
	<g>
		<rect x="149" y="705" fill="#9DAEC5" width="9" height="16"/>
		<polygon fill="#6E788D" points="158,721 148.675,721 158,705.585 		"/>
		<path fill="#92A2BD" d="M147,703v21h13v-21H147z M158,721h-9v-7h9V721z M158,712h-9v-7h9V712z"/>
		<rect x="144" y="724" fill="#6E788D" width="19" height="3"/>
	</g>
	<rect x="82" y="738" fill="#92A2BD" width="15" height="37"/>
	<rect x="84" y="747" fill="#6E788D" width="10" height="28"/>
	<circle fill="#8088A6" cx="86.153" cy="761.891" r="1.119"/>
	<rect x="81" y="734" fill="#6E788D" width="17" height="4"/>
	<rect x="84" y="739" fill="#9DAEC5" width="10" height="7"/>
	<polygon fill="#6E788D" points="94,746 85.215,746 90.639,739 94,739 	"/>
	<polygon fill="#707A90" points="101.271,662.465 84,674.126 84,680 118,680 118,674.126 	"/>
	<polygon fill="#8696B4" points="168,696 168,699 172,699 172,701 168,701 168,703 172,703 172,705 168,705 168,708 172,708 
		172,711 168,711 168,713 172,713 172,715 168,715 168,718 172,718 172,720 168,720 168,723 172,723 172,725 168,725 168,728 
		172,728 172,730 168,730 168,733 172,733 172,735 168,735 168,738 172,738 172,740 168,740 168,742 172,742 172,745 168,745 
		168,748 172,748 172,750 168,750 168,752 172,752 172,754 168,754 168,758 172,758 172,760 168,760 168,763 172,763 172,765 
		168,765 168,767 172,767 172,769 168,769 168,772 172,772 172,774 168,774 168,775 175,775 175,696 	"/>
</g>
<path fill="#707A90" d="M323.688,599.403c0-2.456-1.791-4.447-4.247-4.447c-0.225,0-0.347,0.017-0.564,0.05
	c0.031-0.195,0.098-0.394,0.098-0.597c0-2.04-1.628-3.694-3.668-3.694c-0.794,0-1.516,0.251-2.119,0.677
	c-1.024-3.069-3.913-5.283-7.327-5.283c-4.27,0-7.727,3.461-7.727,7.73c0,0.492,0.049,0.972,0.137,1.438
	c-0.026,0-0.052-0.002-0.078-0.002c-2.374,0-4.321,1.925-4.321,4.299c0,2.324,2.127,4.217,4.127,4.295V604h0.088
	c0.036,0,0.071-0.063,0.107-0.063c0.04,0,0.078-0.035,0.117-0.035l21.226-0.038c0.036,0,0.07,0.07,0.105,0.07
	c0.039,0,0.077,0.065,0.115,0.065H319v-0.154C322,603.762,323.688,601.806,323.688,599.403z"/>
<path fill="#707A90" d="M465.472,556.969c0-2.456-1.899-4.447-4.354-4.447c-0.226,0-0.401,0.018-0.619,0.05
	c0.032-0.194,0.072-0.394,0.072-0.597c0-2.04-1.642-3.694-3.683-3.694c-0.794,0-1.522,0.251-2.124,0.678
	c-1.024-3.07-3.917-5.284-7.331-5.284c-4.27,0-7.729,3.461-7.729,7.73c0,0.492,0.049,0.973,0.137,1.438
	c-0.026,0-0.052-0.002-0.079-0.002c-2.374,0-4.605,1.925-4.605,4.299c0,2.324,1.843,4.217,3.843,4.295V561h0.655
	c0.036,0,0.071,0.221,0.107,0.221c0.039,0,0.078,0.107,0.116,0.105l21.226,0.033c0.036,0,0.07-0.178,0.105-0.178
	c0.038,0,0.077-0.182,0.115-0.182H461v0.411C464,561.327,465.472,559.371,465.472,556.969z"/>
<g>
	<polygon fill="#92A2BD" points="107.58,670.271 115.974,675.982 115.298,676.977 106.872,671.244 	"/>
	<polygon fill="#92A2BD" points="107.865,669.879 108.469,669.05 116.823,674.733 116.247,675.581 	"/>
	<polygon fill="#92A2BD" points="107.178,669.998 106.47,670.971 98.911,665.827 99.586,664.834 	"/>
	<polygon fill="#92A2BD" points="107.464,669.605 99.859,664.433 100.436,663.585 108.067,668.777 	"/>
</g>
<g>
	<rect x="290" y="702" fill="#8087A8" width="120" height="73"/>
	<g>
		<defs>
			<path id="SVGID_62_" d="M290,678h65.25c15.304,3,15.249,18,15.07,21H410v17H290V678z"/>
		</defs>
		<clipPath id="SVGID_63_">
			<use xlink:href="#SVGID_62_"  overflow="visible"/>
		</clipPath>
		<g clip-path="url(#SVGID_63_)">
			<rect x="290" y="685" fill="#6F788F" width="80" height="3"/>
			<rect x="290" y="680" fill="#6F788F" width="80" height="3"/>
			<rect x="290" y="688" fill="#91A2C0" width="80" height="3"/>
			<rect x="290" y="683" fill="#91A2C0" width="80" height="2"/>
			<rect x="290" y="677" fill="#91A2C0" width="80" height="3"/>
			<rect x="290" y="691" fill="#6F788F" width="80" height="2"/>
			<rect x="290" y="693" fill="#91A2C0" width="80" height="3"/>
			<rect x="290" y="696" fill="#6F788F" width="80" height="3"/>
			<rect x="290" y="699" fill="#91A2C0" width="123" height="3"/>
			<rect x="290" y="705" fill="#91A2C0" width="123" height="3"/>
			<rect x="290" y="708" fill="#6F788F" width="123" height="3"/>
			<rect x="290" y="711" fill="#91A2C0" width="123" height="2"/>
			<rect x="290" y="713" fill="#6F788F" width="123" height="3"/>
			<rect x="290" y="702" fill="#6F788F" width="123" height="3"/>
		</g>
	</g>
	<g>
		<rect x="302" y="728" fill="#8392AB" width="22" height="47"/>
		<polygon fill="#8087A8" points="303.773,775 323,732.101 323,775 		"/>
		<path fill="#9AA6BC" d="M301,727v48h2.299l-0.082-18.063L323,756.975V775h3v-48H301z M323,754h-20v-24h20V754z"/>
	</g>
	<rect x="335" y="720" fill="#8392AA" width="67" height="40"/>
	<polygon fill="#8088A8" points="386.872,720 359.707,760 402,760 402,720 	"/>
	<rect x="335.5" y="720.5" fill="none" stroke="#9BA6B9" stroke-width="5" stroke-miterlimit="10" width="67" height="39"/>
	<g>
		<polygon fill="#727991" points="320.023,746.716 309.04,749.292 307.638,742.377 318.848,740.479 		"/>
		<polygon fill="none" stroke="#727991" stroke-miterlimit="10" points="308.949,742.467 314.803,736.613 317.627,741.201 		"/>
	</g>
	<g>
		<path fill="#9AAFC7" d="M290,730v5.743c0,2.44,2.304,4.419,5,4.419s5-1.979,5-4.419V730H290z"/>
		<path fill="#8087A8" d="M300,730v5.743c0,2.44,2.304,4.419,5,4.419c2.696,0,5-1.979,5-4.419V730H300z"/>
		<path fill="#9AAFC7" d="M310,730v5.743c0,2.44,2.192,4.419,5,4.419c2.809,0,5-1.979,5-4.419V730H310z"/>
		<path fill="#8087A8" d="M320,730v5.743c0,2.44,2.358,4.419,5,4.419s5-1.979,5-4.419V730H320z"/>
		<path fill="#8087A8" d="M340,730v5.743c0,2.44,2.357,4.419,5,4.419s5-1.979,5-4.419V730H340z"/>
		<path fill="#8087A8" d="M360,730v5.743c0,2.44,2.358,4.419,5,4.419s5-1.979,5-4.419V730H360z"/>
		<path fill="#8087A8" d="M381,730v5.743c0,2.44,1.858,4.419,4.5,4.419c2.641,0,4.5-1.979,4.5-4.419V730H381z"/>
		<path fill="#8087A8" d="M400,730v5.743c0,2.44,2.505,4.419,5,4.419c2.495,0,5-1.979,5-4.419V730H400z"/>
		<path fill="#9AAFC7" d="M330,730v5.743c0,2.44,2.239,4.419,5,4.419s5-1.979,5-4.419V730H330z"/>
		<path fill="#9AAFC7" d="M350,730v5.743c0,2.44,2.239,4.419,5,4.419s5-1.979,5-4.419V730H350z"/>
		<path fill="#9AAFC7" d="M370,730v5.743c0,2.44,2.739,4.419,5.5,4.419s5.5-1.979,5.5-4.419V730H370z"/>
		<path fill="#9AAFC7" d="M390,730v5.743c0,2.44,2.239,4.419,5,4.419s5-1.979,5-4.419V730H390z"/>
		<rect x="290" y="715" fill="#B7CDDE" width="10" height="15"/>
		<rect x="310" y="715" fill="#B7CDDE" width="10" height="15"/>
		<rect x="330" y="715" fill="#B7CDDE" width="10" height="15"/>
		<rect x="350" y="715" fill="#B7CDDE" width="10" height="15"/>
		<rect x="370" y="715" fill="#B7CDDE" width="11" height="15"/>
		<rect x="390" y="715" fill="#B7CDDE" width="10" height="15"/>
		<rect x="300" y="715" fill="#91A2C0" width="10" height="15"/>
		<rect x="320" y="715" fill="#91A2C0" width="10" height="15"/>
		<rect x="340" y="715" fill="#91A2C0" width="10" height="15"/>
		<rect x="360" y="715" fill="#91A2C0" width="10" height="15"/>
		<rect x="381" y="715" fill="#91A2C0" width="9" height="15"/>
		<rect x="400" y="715" fill="#91A2C0" width="10" height="15"/>
		<polygon fill="#AEC3D8" points="300,715.89 290.282,730 300,730 		"/>
		<polygon fill="#8796B5" points="310,715.89 300.044,730 310,730 		"/>
		<polygon fill="#AEC3D8" points="320,715.89 309.808,730 320,730 		"/>
		<polygon fill="#8796B5" points="330,715.89 320.112,730 330,730 		"/>
		<polygon fill="#AEC3D8" points="340,715.89 329.875,730 340,730 		"/>
		<polygon fill="#8796B5" points="350,715.89 340.182,730 350,730 		"/>
		<polygon fill="#AEC3D8" points="360,715.89 349.944,730 360,730 		"/>
		<polygon fill="#8796B5" points="370,715.89 360.25,730 370,730 		"/>
		<polygon fill="#AEC3D8" points="381,715.89 370.013,730 381,730 		"/>
		<polygon fill="#8796B5" points="390,715.89 380.318,730 390,730 		"/>
		<polygon fill="#AEC3D8" points="400,715.89 390.081,730 400,730 		"/>
		<polygon fill="#8796B5" points="410,715.89 400.386,730 410,730 		"/>
	</g>
</g>
<g>
	<path fill="#8088A6" d="M175,647v128h115V647H175z M180,656h-4v-7h4V656z M186,656h-4v-7h4V656z M191,656h-4v-7h4V656z M196,656h-4
		v-7h4V656z M202,656h-4v-7h4V656z M207,656h-4v-7h4V656z M213,656h-5v-7h5V656z M218,656h-4v-7h4V656z M223,656h-4v-7h4V656z
		 M229,656h-4v-7h4V656z M235,656h-5v-7h5V656z M240,656h-4v-7h4V656z M245,656h-4v-7h4V656z M251,656h-5v-7h5V656z M256,656h-4v-7
		h4V656z M262,656h-5v-7h5V656z M267,656h-4v-7h4V656z M272,656h-4v-7h4V656z M278,656h-5v-7h5V656z M284,656h-5v-7h5V656z M289,656
		h-4v-7h4V656z"/>
	<g>
		<g>
			<rect x="175" y="695" fill="#8696B4" width="62" height="3"/>
			<rect x="175" y="700" fill="#8696B4" width="62" height="2"/>
			<rect x="175" y="705" fill="#8696B4" width="62" height="2"/>
			<rect x="175" y="710" fill="#8696B4" width="62" height="2"/>
			<rect x="175" y="715" fill="#8696B4" width="62" height="2"/>
			<rect x="175" y="719" fill="#8696B4" width="62" height="3"/>
			<rect x="175" y="724" fill="#8696B4" width="62" height="3"/>
			<rect x="175" y="662" fill="#8696B4" width="62" height="2"/>
			<rect x="175" y="667" fill="#8696B4" width="62" height="2"/>
			<rect x="175" y="671" fill="#8696B4" width="62" height="2"/>
			<rect x="175" y="676" fill="#8696B4" width="62" height="3"/>
			<rect x="175" y="681" fill="#8696B4" width="62" height="3"/>
			<rect x="175" y="686" fill="#8696B4" width="62" height="2"/>
			<rect x="175" y="691" fill="#8696B4" width="62" height="2"/>
			<rect x="175" y="730" fill="#8696B4" width="62" height="2"/>
			<rect x="175" y="734" fill="#8696B4" width="62" height="2"/>
			<rect x="175" y="739" fill="#8696B4" width="62" height="2"/>
			<rect x="175" y="744" fill="#8696B4" width="62" height="2"/>
			<rect x="175" y="749" fill="#8696B4" width="62" height="2"/>
			<rect x="175" y="754" fill="#8696B4" width="62" height="2"/>
			<rect x="175" y="759" fill="#8696B4" width="62" height="2"/>
			<rect x="175" y="764" fill="#8696B4" width="62" height="2"/>
			<rect x="175" y="769" fill="#8696B4" width="62" height="2"/>
		</g>
		<polygon fill="#8696B4" points="284,659 284,662 286,662 286,664 284,664 284,667 286,667 286,669 284,669 284,671 286,671 
			286,673 284,673 284,676 286,676 286,679 284,679 284,681 286,681 286,684 284,684 284,686 286,686 286,688 284,688 284,691 
			286,691 286,693 284,693 284,696 286,696 286,698 284,698 284,701 286,701 286,703 284,703 284,705 286,705 286,708 284,708 
			284,711 286,711 286,713 284,713 284,715 286,715 286,718 284,718 284,721 286,721 286,723 284,723 284,726 286,726 286,728 
			284,728 284,731 286,731 286,733 284,733 284,735 286,735 286,738 283.573,738 283.573,738 290,738 290,659 		"/>
		<polyline fill="#8696B4" points="290,775 290,737 284,737 284,740 286,740 286,742 284,742 284,745 286,745 286,747 284,747 
			284,750 286,750 286,751 284,751 284,754 286,754 286,757 284,757 284,760 286,760 286,762 284,762 284,764 286,764 286,766 
			284,766 284,769 286,769 286,771 284,771 284,774 286,774 286,775 		"/>
	</g>
	<g>
		<rect x="265" y="705" fill="#9DAEC5" width="9" height="16"/>
		<polygon fill="#6E788D" points="274,721 264.946,721 274,705.042 		"/>
		<path fill="#92A2BD" d="M263,703v20h14v-20H263z M274,721h-9v-8h9V721z M274,712h-9v-7h9V712z"/>
		<rect x="261" y="723" fill="#6E788D" width="18" height="3"/>
	</g>
	<g>
		<rect x="232" y="705" fill="#9DAEC5" width="10" height="16"/>
		<polygon fill="#6E788D" points="242,721 231.86,721 242,705.042 		"/>
		<path fill="#92A2BD" d="M230,703v20h14v-20H230z M242,721h-10v-8h10V721z M242,712h-10v-7h10V712z"/>
		<rect x="227" y="723" fill="#6E788D" width="19" height="3"/>
	</g>
	<g>
		<rect x="265" y="675" fill="#9DAEC5" width="9" height="15"/>
		<polygon fill="#6E788D" points="274,690 264.946,690 274,674.669 		"/>
		<path fill="#92A2BD" d="M263,672v21h14v-21H263z M274,690h-9v-7h9V690z M274,681h-9v-6h9V681z"/>
		<rect x="261" y="693" fill="#6E788D" width="18" height="3"/>
	</g>
	<g>
		<rect x="232" y="675" fill="#9DAEC5" width="10" height="15"/>
		<polygon fill="#6E788D" points="242,690 231.86,690 242,674.669 		"/>
		<path fill="#92A2BD" d="M230,672v21h14v-21H230z M242,690h-10v-7h10V690z M242,681h-10v-6h10V681z"/>
		<rect x="227" y="693" fill="#6E788D" width="19" height="3"/>
	</g>
	<g>
		<rect x="198" y="705" fill="#9DAEC5" width="10" height="16"/>
		<polygon fill="#6E788D" points="208,721 198.232,721 208,705.042 		"/>
		<path fill="#92A2BD" d="M196,703v20h14v-20H196z M208,721h-10v-8h10V721z M208,712h-10v-7h10V712z"/>
		<rect x="194" y="723" fill="#6E788D" width="18" height="3"/>
	</g>
	<g>
		<rect x="198" y="675" fill="#9DAEC5" width="10" height="15"/>
		<polygon fill="#6E788D" points="208,690 198.232,690 208,674.669 		"/>
		<path fill="#92A2BD" d="M196,672v21h14v-21H196z M208,690h-10v-7h10V690z M208,681h-10v-6h10V681z"/>
		<rect x="194" y="693" fill="#6E788D" width="18" height="3"/>
	</g>
	<rect x="227" y="759" fill="#6E788D" width="51" height="3"/>
	<g>
		<rect x="196" y="738" fill="#92A2BD" width="15" height="37"/>
		<rect x="198" y="747" fill="#6E788D" width="10" height="28"/>
		<rect x="195" y="734" fill="#6E788D" width="17" height="4"/>
		<rect x="198" y="739" fill="#9DAEC5" width="10" height="7"/>
		<polygon fill="#6E788D" points="208,746 199.317,746 204.74,739 208,739 		"/>
		<circle fill="#8088A6" cx="200.254" cy="760.807" r="1.119"/>
	</g>
	<rect x="230" y="739" fill="#9DAEC5" width="9" height="19"/>
	<rect x="266" y="739" fill="#9DAEC5" width="8" height="19"/>
	<rect x="239" y="739" fill="#9DAEC5" width="25" height="19"/>
	<polygon fill="#6E788D" points="239,757 229.69,757 239,741.382 	"/>
	<polygon fill="#6E788D" points="275,757 265.488,757 275,741.382 	"/>
	<polygon fill="#6E788D" points="257.352,739 246.324,757 263,757 263,739 	"/>
	<path fill="#92A2BD" d="M229,736v23h47v-23H229z M238,757h-7v-8h7V757z M238,747h-7v-8h7V747z M263,757h-22v-18h22V757z M273,757
		h-7v-8h7V757z M273,747h-7v-8h7V747z"/>
	<rect x="175" y="657" fill="#707A90" width="115" height="3"/>
	<polygon fill="#8088A6" points="283.387,625 269.827,612.525 256.268,625 259,625 259,651 261,651 261,656 266,656 266,651 
		274,651 274,656 279,656 279,651 281,651 281,625 	"/>
</g>
<g>
	<path fill="none" stroke="#707A90" stroke-width="0.5153" stroke-miterlimit="10" d="M207.488,551.018
		c0,0,12.617,10.657,14.575,23.665c0.98,6.517,3.778,22.103,13.017,22.57"/>
	<path fill="none" stroke="#707A90" stroke-width="0.5153" stroke-miterlimit="10" d="M260.311,549.294
		c0,0-8.627,13.008-8.209,26.339c0.207,6.587-6.539,18.911-15.776,19.38"/>
	<g>
		<defs>
			<path id="SVGID_64_" d="M232.027,567.572c0,0,2.43-6.939-5.027-8.601c-10.318-2.299-34.983-8.854-40.356-37.73
				c-6.269-33.695,35.419-73.816,76.95-41.218c0,0,33.225,20.844-2.821,69.271c0,0-10.265,8.541-16.749,23.528L232.027,567.572z"/>
		</defs>
		<use xlink:href="#SVGID_64_"  overflow="visible" fill="#D25B6F"/>
		<clipPath id="SVGID_65_">
			<use xlink:href="#SVGID_64_"  overflow="visible"/>
		</clipPath>
		<polygon clip-path="url(#SVGID_65_)" fill="#AC1E3B" points="210.466,560.107 167.838,527.354 187.271,459.337 241.652,467.953 		
			"/>
		
			<circle clip-path="url(#SVGID_65_)" fill="#FFFFFF" stroke="#000000" stroke-width="3.6071" stroke-miterlimit="10" cx="252.121" cy="583.777" r="78.748"/>
		<polygon opacity="0.3" clip-path="url(#SVGID_65_)" points="210.466,561.205 167.838,528.45 187.271,460.434 241.652,469.05 		"/>
	</g>
	<g>
		<path fill="#42210B" d="M234.358,614.175c0,0-0.48,1.067,1.049,0.907c1.53-0.161,4.6-1.218,5.97-0.511
			c1.369,0.708,2.083-1.739,3.383-1.579c0,0,2.628,0.499,2.833-0.803c0,0,0.39-0.775-1.208-1.278c0,0-0.706-0.663,1.405-0.937
			c0,0,1.358-0.092,1.792-0.314l0.297-2.66h-4.291l-0.158-4.561l-1.69-1.256l-7.808,2.479l1.232,6.112l-2.602,4.128L234.358,614.175
			z"/>
		<path fill="#42210B" d="M253.44,606.07c0,0,1.289,4.463-5.649,3.904L253.44,606.07z"/>
		<path fill="#D25B6F" d="M241.868,599.931c0,0,3.812,1.255,6.779,4.93c0,0,1.507,1.735,4.794,1.21c0,0-0.486,4.402-5.649,3.904
			c0,0,1.238-1.287,0.808-1.599c-0.263-0.191-1.144-0.019-3.306,1.028c0,0-3.105,0.342-1.142-3.061c0,0,1.915-3.636-0.104-4.809
			L241.868,599.931z"/>
		<path fill="#C5D5B9" d="M240.065,611.8c0,0,4.656,11.048,3.195,13.012c0,0-0.046,2.466-0.731,2.877c0,0-0.092,2.557,2.42,1.369
			c0,0,0.867-3.241,0.273-5.296c0,0-0.98-11.186-2.477-11.962c0,0-1.061-7.577-1.061-8.053l0.799-2.173l-3.858,4.781L240.065,611.8z
			"/>
		<path fill="#D25B6F" d="M238.808,609.746l-2.92-5.341l-1.956,2.297c0,0,1.499,0.988,0.631,2.382c0,0-0.434,0.524,0,2.077
			c0,0,0.32,2.579-1.963,3.173c0,0,2.579,1.643,4.2-1.392L238.808,609.746z"/>
		<path fill="#42210B" d="M236.389,604.851l-0.479,0.329c0,0-0.944,1.4-1.979,1.522c-1.035,0.122,1.705,0.457,1.157,0.974
			c0,0-0.671,2.526,1.429,4.353c0,0-0.182,2.983-3.865,2.313c0,0,0.608,1.187,3.865,0.67c3.258-0.518,2.375-4.079,2.375-4.079
			l-1.765-5.479L236.389,604.851z"/>
		<polygon fill="#7A8661" points="240.873,608.884 240.065,611.8 238.102,605.5 239.745,604.949 240.118,606.252 		"/>
		<path fill="#C5D5B9" d="M239.745,604.949c0,0,0.948,4.021,0.76,4.46c0,0-0.64,1.707-0.76,3.138c0,0-2.131,11.2-1.37,13.208
			c0,0,0.382,3.47,2.352,3.927c0,0,0.327,1.582-2.29,0.363c0,0-2.375-2.189-2.648-3.012c0,0-0.738-0.972,0.852-2.252
			c0,0-0.273-13.636,1.004-14.67c0,0-2.465-6.117-1.4-6.178C236.244,603.934,239.805,603.106,239.745,604.949z"/>
		<path fill="#7A8661" d="M239.745,604.949l-3.198,2.135c0,0-0.664-1.926-0.569-2.569c0.096-0.644,3.584-1.709,3.584-1.709
			L239.745,604.949z"/>
		<path fill="#7A8661" d="M241.686,603.747l-1.046,0.675l-1.029,0.664c0,0-0.42-1.844-0.326-2.488
			c0.096-0.644,3.123-0.813,3.123-0.813L241.686,603.747z"/>
		<g>
			<path fill="#FF0000" d="M234.96,586.29c-0.778,0-1.398-0.168-1.405-0.169c-3.032-1.373-1.658-4.823-1.512-5.167
				c-0.146,0.562-0.118,0.978,0.082,1.271c0.177,0.26,0.472,0.396,0.853,0.396c0.241,0,0.436-0.056,0.457-0.062
				c0.305-0.113,0.518-0.316,0.635-0.594c-0.001,0.148-0.01,0.277-0.021,0.376l-0.087,0.764l0.582-0.502
				c0.446-0.386,0.689-0.86,0.725-1.412c0.082-1.271-0.995-2.491-1.041-2.543c-0.27-0.358-0.224-1.218,0.11-2.365
				c0.196,0.801,0.578,1.38,0.604,1.42l0.599,0.896l-0.05-1.077c-0.07-1.525,0.257-2.684,0.975-3.442
				c0.147-0.156,0.304-0.286,0.461-0.394c-1.604,1.904-0.95,4.584-0.941,4.616c0.792,1.986,0.129,5.701,0.123,5.738l-0.141,0.775
				l0.621-0.485c1.576-1.229,1.003-4.081,0.978-4.202c-0.249-0.768-0.336-1.38-0.332-1.863c0.093,0.525,0.234,0.948,0.267,1.044
				c0.865,2.774,0.883,4.76,0.049,5.893C236.888,586.102,235.776,586.29,234.96,586.29z"/>
			<path fill="#F7931E" d="M234.4,577.341c0.147,0.312,0.275,0.507,0.291,0.53l1.198,1.793l-0.037-0.804
				c0.526,1.941-0.035,5.094-0.041,5.128l-0.281,1.55l1.242-0.969c0.608-0.475,0.925-1.16,1.081-1.854
				c0.031,0.994-0.151,1.773-0.545,2.31c-0.471,0.64-1.26,0.965-2.347,0.965c-0.622,0-1.138-0.113-1.284-0.148
				c-1.662-0.775-1.855-2.248-1.725-3.35c0.237,0.278,0.597,0.431,1.027,0.431c0.277,0,0.5-0.063,0.582-0.088
				c0.047-0.018,0.092-0.037,0.136-0.059l-0.124,1.063l1.167-1.009c0.501-0.434,0.788-0.993,0.829-1.62
				c0.088-1.371-0.993-2.623-1.085-2.724C234.351,578.314,234.31,577.927,234.4,577.341 M238.458,572.858
				c0,0-3.483,0.012-3.268,4.679c0,0-1.002-1.499-0.552-2.972c-0.456,1.078-1.308,3.396-0.635,4.284c0,0,1.929,2.157,0.343,3.527
				c0,0,0.25-2.156-0.938-2.721c0,0,1.097,2.185-0.058,2.616c0,0-0.168,0.05-0.372,0.05c-0.455,0-1.091-0.245-0.467-1.827
				c0,0,1.454-3.106,0.494-3.703c0,0,0.417,0.894-1.226,4.019c0,0-1.779,4.03,1.697,5.6c0,0,0.652,0.18,1.484,0.18
				c1.928,0,4.823-0.966,2.824-7.378c0,0-0.684-1.975-0.096-2.832c0,0-1.374,0.865-0.417,3.812c0,0,0.578,2.775-0.869,3.904
				c0,0,0.694-3.813-0.127-5.866C236.275,578.229,235.318,574.479,238.458,572.858L238.458,572.858z M234.891,573.999
				c-0.112,0.187-0.194,0.376-0.252,0.566C234.785,574.218,234.891,573.999,234.891,573.999L234.891,573.999z"/>
		</g>
		<g>
			<defs>
				<path id="SVGID_66_" d="M231.344,586.737l3.288,3.408l0.548-2.313c0,0,1.705,0.609,2.009,0.609
					c0.305-0.001,0.677,1.769,1.705,2.738c0,0-2.74,4.963,5.416,10.563c0,0-1.345-1.311-4.625,3.285c0,0-0.609,0.578-1.492,0
					c0,0,0.457-0.213,0.304-0.883c0,0-1.825-0.608-3.805,1.979c0,0-0.091,0.426-0.974,0.122c0,0,2.014-5.601-1.243-8.613
					C232.475,597.633,227.448,589.689,231.344,586.737z"/>
			</defs>
			<use xlink:href="#SVGID_66_"  overflow="visible" fill="#D25B6F"/>
			<clipPath id="SVGID_67_">
				<use xlink:href="#SVGID_66_"  overflow="visible"/>
			</clipPath>
			<polygon clip-path="url(#SVGID_67_)" fill="#AC1E3B" points="234.692,606.124 228.605,599.884 229.864,585.093 238.178,587.957 
				238.893,591.18 			"/>
		</g>
		<path fill="#C5D5B9" d="M232,588.974c0,0-0.418-1.552-1.696-0.822c0,0-1.056,2.192,1.5,7.717c0,0,1.893,7.258,1.985,8.354
			c0,0-0.538,2.784-1.314,2.966c0,0-0.04,0.686,1.33,1.142c0,0,1.473-1.871,0.833-4.747c0,0-0.638-10.41-2.638-11.779V588.974z"/>
	</g>
	
		<ellipse transform="matrix(0.9161 0.401 -0.401 0.9161 248.5616 -47.6497)" fill="#445572" cx="238.128" cy="570.051" rx="6.728" ry="2.454"/>
	<path fill="none" stroke="#707A90" stroke-width="0.5153" stroke-miterlimit="10" d="M223.475,554.857
		c2.381,6.486,3.525,5.172,5.998,18.692c1.186,6.482-5.326,27.033,3.913,27.502"/>
	<path fill="none" stroke="#707A90" stroke-width="0.5153" stroke-miterlimit="10" d="M250.665,553.761
		c0,0-9.013,8.697-4.727,20.573c2.783,7.714,3.134,23.583-7.912,24.66"/>
	
		<ellipse transform="matrix(0.9161 0.401 -0.401 0.9161 248.5793 -47.5928)" fill="#707A90" cx="237.997" cy="570.101" rx="6.366" ry="2.208"/>
	<circle fill="#FFFFFF" stroke="#000000" stroke-width="2.0612" stroke-miterlimit="10" cx="229.86" cy="508.115" r="6.935"/>
	<polygon opacity="0.8" points="231,515.391 225.177,513.563 222.731,509.068 226.743,507.701 231,510.035 	"/>
	<circle cx="230.173" cy="507.998" r="2.664"/>
	<circle fill="#FFFFFF" cx="229.86" cy="508.155" r="2.664"/>
</g>
<path fill="none" stroke="#F28A0C" stroke-miterlimit="10" d="M437.097,586.874"/>
<path fill="#DBAC72" d="M438.856,588.501"/>
<path fill="none" stroke="#787B7E" stroke-width="4" stroke-miterlimit="10" d="M368.767,689.177c0,0-4.521-16.537,62.029,15.992
	c24.639,12.045,22.455-25.376-0.829-40.246c-6.697-4.277-20.008-36.312,25.555-33.2c0,0,17.464,0.821,8.818-13.509
	c-8.645-14.33,39.106-12.757,16.354,19.216c-27.42,38.53,24.075,31.468,26.656,25.72"/>
<g>
	<path fill="#B9B9B9" d="M503.513,652.595c0,0-5.675-14.311,1.08-15.641c0,0,12.5-3.839,15.861-2.704c0,0,2.432,1.1,3.188,4.718
		c0,0,7.443,25.777-0.156,29.282L503.513,652.595z"/>
	<path fill="#ACACAC" d="M516.311,637.677c0,0,2.538-0.877,3.642,1.213c0,0,5.393,20.642,4.463,25.001c0,0,0.19,2.511-1.311,3.339
		l-5.566-16.583L516.311,637.677z"/>
	<path fill="#ACACAC" d="M507.019,668.75c0,0,2.78,13.334,9.453,13.271c0,0,0.205,8.851,4.977,3.844l0.071-5.723l-5.685-10.341
		C515.834,669.801,507.865,671.396,507.019,668.75z"/>
	<g>
		<path fill="#B9B9B9" d="M518.118,650.355l1.863,1.477l4,16.297c0,0-7.087,0.231-8.308,3.678c0,0-7.262,0.209-8.439-2.452
			c0,0-3.162-11.389-1.224-16.585C506.009,652.77,517.493,650.006,518.118,650.355z"/>
		<polygon fill="#787B7E" points="506.796,666.969 505.511,659.94 507.35,656.473 515.92,660.401 		"/>
		<polygon fill="#ACACAC" points="515.92,660.401 507.618,661.521 507.35,656.473 516.256,654.287 		"/>
		<g>
			<defs>
				<circle id="SVGID_68_" cx="513.989" cy="656.639" r="0.867"/>
			</defs>
			<use xlink:href="#SVGID_68_"  overflow="visible" fill="#B0211E"/>
			<clipPath id="SVGID_69_">
				<use xlink:href="#SVGID_68_"  overflow="visible"/>
			</clipPath>
			<polygon clip-path="url(#SVGID_69_)" fill="#5E0808" points="513.294,657.449 515.144,655.568 512.654,655.344 512.432,657.144 
							"/>
		</g>
		<g>
			<defs>
				<circle id="SVGID_70_" cx="513.793" cy="659.047" r="0.867"/>
			</defs>
			<use xlink:href="#SVGID_70_"  overflow="visible" fill="#B0211E"/>
			<clipPath id="SVGID_71_">
				<use xlink:href="#SVGID_70_"  overflow="visible"/>
			</clipPath>
			<polygon clip-path="url(#SVGID_71_)" fill="#5E0808" points="513.099,659.857 514.948,657.978 512.459,657.751 512.236,659.552 
							"/>
		</g>
		<polygon fill="#767A7E" points="513.933,652.301 505.41,656.093 505.715,653.767 516.344,649.348 		"/>
	</g>
	<g>
		<g>
			<g>
				<defs>
					
						<ellipse id="SVGID_72_" transform="matrix(0.9712 -0.2384 0.2384 0.9712 -138.9191 140.2716)" cx="510.514" cy="644.517" rx="9.361" ry="8.374"/>
				</defs>
				<clipPath id="SVGID_73_">
					<use xlink:href="#SVGID_72_"  overflow="visible"/>
				</clipPath>
			</g>
			<g>
				<defs>
					
						<ellipse id="SVGID_74_" transform="matrix(0.9712 -0.2384 0.2384 0.9712 -138.9191 140.2716)" cx="510.514" cy="644.517" rx="9.361" ry="8.374"/>
				</defs>
				<use xlink:href="#SVGID_74_"  overflow="visible" fill="#A1A1A1"/>
				<clipPath id="SVGID_75_">
					<use xlink:href="#SVGID_74_"  overflow="visible"/>
				</clipPath>
				<g clip-path="url(#SVGID_75_)">
					<polygon fill="#BBBBBB" points="502.223,652.944 519.386,636.504 509.049,635.073 492.25,639.833 					"/>
				</g>
			</g>
			<g>
				<defs>
					
						<ellipse id="SVGID_76_" transform="matrix(0.9712 -0.2384 0.2384 0.9712 -138.9191 140.2716)" cx="510.514" cy="644.517" rx="9.361" ry="8.374"/>
				</defs>
				<clipPath id="SVGID_77_">
					<use xlink:href="#SVGID_76_"  overflow="visible"/>
				</clipPath>
			</g>
		</g>
		<g>
			<g>
				<g>
					<path fill="#D9D9D9" d="M504.435,640.591c0,0-1.256-1.314-1.906-1.155c0,0-0.958,0.702-0.925,1.038
						c0,0,0.014,0.759,0.541,0.802L504.435,640.591z"/>
					
						<ellipse transform="matrix(0.9714 -0.2376 0.2376 0.9714 -137.7988 137.7422)" fill="#888888" cx="502.446" cy="640.451" rx="0.633" ry="0.561"/>
				</g>
				<g>
					<path fill="#D9D9D9" d="M516.311,637.677c0,0-1.257-1.314-1.907-1.155c0,0-0.959,0.702-0.925,1.038
						c0,0,0.014,0.759,0.541,0.802L516.311,637.677z"/>
					
						<ellipse transform="matrix(0.9712 -0.2384 0.2384 0.9712 -137.1385 140.9687)" fill="#888888" cx="514.321" cy="637.538" rx="0.633" ry="0.562"/>
				</g>
				<g>
					<defs>
						
							<ellipse id="SVGID_78_" transform="matrix(0.9712 -0.2383 0.2383 0.9712 -139.1318 140.0486)" cx="509.599" cy="645.397" rx="7.212" ry="6.304"/>
					</defs>
					<use xlink:href="#SVGID_78_"  overflow="visible" fill="#3B3B3B"/>
					<clipPath id="SVGID_79_">
						<use xlink:href="#SVGID_78_"  overflow="visible"/>
					</clipPath>
					<polygon clip-path="url(#SVGID_79_)" fill="#1A1A1A" points="505.113,651.316 515.477,639.594 505.627,636.648 
						497.285,642.714 499.917,650.231 					"/>
				</g>
			</g>
		</g>
	</g>
	<path fill="#787B7E" d="M515.438,671.799c0,0,1.242,7.466,5.62,11.407c0.33,0.298-0.31,1.011,0.298,2.754
		c0.128,0.369,1.088-2.582,1.187-3.015c0.154-0.677,0.064-1.578,0.064-1.578l-6.309-9.779L515.438,671.799z"/>
	<path fill="#ACACAC" d="M521.289,683.083c0,0-0.854,6.57,3.493,5.307c0,0,4.859-4.405,2.797-9.604c0,0-5.665-4.379-4.093-10.535
		c0,0-5.33-1.807-8.048,3.549c0,0,1.855,7.937,5.805,11.1"/>
	<path fill="#787B7E" d="M520.666,682.835"/>
	<g>
		<path fill="#B9B9B9" d="M506.204,653.564c0,0-5.031,6.195-12.96,2.338c0,0-0.271,3.706-1.757,4.463c0,0,5.983,3.58,14.249,1.553
			L506.204,653.564z"/>
		<circle fill="#767A7E" cx="492.588" cy="657.505" r="3.28"/>
		<circle fill="#B9B9B9" cx="492.032" cy="657.38" r="3.535"/>
	</g>
	<g>
		<g>
			<g>
				<path fill="#787B7E" d="M518.104,656.521c0,0,4.485-2.095,12.371,4.517c0,0,1.356-4.118,3.252-4.555
					c0,0-6.834-5.485-16.765-5.528L518.104,656.521z"/>
			</g>
			<circle fill="#787B7E" cx="532.264" cy="659.708" r="4.124"/>
		</g>
	</g>
</g>
</svg>
