<?xml version="1.0" encoding="utf-8"?>
<!-- Generator: Adobe Illustrator 16.0.0, SVG Export Plug-In . SVG Version: 6.00 Build 0)  -->
<!DOCTYPE svg PUBLIC "-//W3C//DTD SVG 1.1//EN" "http://www.w3.org/Graphics/SVG/1.1/DTD/svg11.dtd">
<svg version="1.1" id="Layer_1" xmlns="http://www.w3.org/2000/svg" xmlns:xlink="http://www.w3.org/1999/xlink" x="0px" y="0px"
	 width="1920px" height="941px" viewBox="0 0 1920 941" enable-background="new 0 0 1920 941" xml:space="preserve">
<g>
	<path fill="#EA332A" stroke="#EA332A" d="M-20-98L-74,73l98-35L-20-98z"/>
	<path fill="#EE2C26" stroke="#EE2C26" d="M-20-98L24,38l85-114L-20-98z"/>
	<path fill="#F8332A" stroke="#F8332A" d="M-20-98l129,22l437-34L-20-98z"/>
	<path fill="#F24432" stroke="#F24432" d="M109-76L24,38l170,12L109-76z"/>
	<path fill="#F74833" stroke="#F74833" d="M109-76l85,126l89-84L109-76z"/>
	<path fill="#FA4633" stroke="#FA4633" d="M109-76l174,42l133-26L109-76z"/>
	<path fill="#FC4A34" stroke="#FC4A34" d="M109-76l307,16l130-50L109-76z"/>
	<path fill="#FB5F3E" stroke="#FB5F3E" d="M283-34l-89,84l184-15L283-34z"/>
	<path fill="#FC5D3D" stroke="#FC5D3D" d="M283-34l95,69l38-95L283-34z"/>
	<path fill="#FD6C44" stroke="#FD6C44" d="M416-60l-38,95l102-14L416-60z"/>
	<path fill="#FE6441" stroke="#FE6441" d="M416-60l64,81l66-131L416-60z"/>
	<path fill="#FE6F49" stroke="#FE6F49" d="M546-110L480,21l169-54L546-110z"/>
	<path fill="#FF6D4C" stroke="#FF6D4C" d="M546-110l103,77l156-81L546-110z"/>
	<path fill="#E67548" stroke="#E67548" d="M546-110l259-4l902-16L546-110z"/>
	<path fill="#FF8655" stroke="#FF8655" d="M649-33L480,21l223,34L649-33z"/>
	<path fill="#FF8358" stroke="#FF8358" d="M649-33l54,88l102-169L649-33z"/>
	<path fill="#F9915E" stroke="#F9915E" d="M805-114L703,55l158,25L805-114z"/>
	<path fill="#F2935D" stroke="#F2935D" d="M805-114l56,194l124-34L805-114z"/>
	<path fill="#EE8355" stroke="#EE8355" d="M805-114L985,46l28-132L805-114z"/>
	<path fill="#E6754A" stroke="#E6754A" d="M805-114l208,28l219-11L805-114z"/>
	<path fill="#D86F40" stroke="#D86F40" d="M805-114l427,17l179-9L805-114z"/>
	<path fill="#C4663A" stroke="#C4663A" d="M805-114l606,8l296-24L805-114z"/>
	<path fill="#E58854" stroke="#E58854" d="M1013-86L985,46l103-98L1013-86z"/>
	<path fill="#DC7547" stroke="#DC7547" d="M1013-86l75,34l144-45L1013-86z"/>
	<path fill="#DF9959" stroke="#DF9959" d="M1088-52L985,46l188,57L1088-52z"/>
	<path fill="#D59251" stroke="#D59251" d="M1088-52l85,155l109-82L1088-52z"/>
	<path fill="#D37C46" stroke="#D37C46" d="M1088-52l194,73l-50-118L1088-52z"/>
	<path fill="#C47042" stroke="#C47042" d="M1232-97l50,118l129-127L1232-97z"/>
	<path fill="#BE824B" stroke="#BE824B" d="M1411-106L1282,21l102,90L1411-106z"/>
	<path fill="#B37847" stroke="#B37847" d="M1411-106l-27,217l143-150L1411-106z"/>
	<path fill="#A25637" stroke="#A25637" d="M1411-106l116,67l180-91L1411-106z"/>
	<path fill="#AB854D" stroke="#AB854D" d="M1527-39l-143,150l177-46L1527-39z"/>
	<path fill="#9A7847" stroke="#9A7847" d="M1527-39l34,104l132-7L1527-39z"/>
	<path fill="#93603B" stroke="#93603B" d="M1527-39l166,97l14-188L1527-39z"/>
	<path fill="#835737" stroke="#835737" d="M1707-130l-14,188l133-108L1707-130z"/>
	<path fill="#803E2B" stroke="#803E2B" d="M1707-130l119,80l245-40L1707-130z"/>
	<path fill="#80673E" stroke="#80673E" d="M1826-50L1693,58l123-13L1826-50z"/>
	<path fill="#805D39" stroke="#805D39" d="M1826-50l-10,95l221,8L1826-50z"/>
	<path fill="#80492F" stroke="#80492F" d="M1826-50l211,103l34-143L1826-50z"/>
	<path fill="#80653C" stroke="#80653C" d="M2071-90l-34,143l6,222L2071-90z"/>
	<path fill="#80AF6D" stroke="#80AF6D" d="M2071-90l-28,365l-9,800L2071-90z"/>
	<path fill="#E84E37" stroke="#E84E37" d="M-74,73l-29,123L24,38L-74,73z"/>
	<path fill="#EB6943" stroke="#EB6943" d="M24,38l-127,158l155,78L24,38z"/>
	<path fill="#F16642" stroke="#F16642" d="M24,38l28,236L194,50L24,38z"/>
	<path fill="#F48550" stroke="#F48550" d="M194,50L52,274l136-11L194,50z"/>
	<path fill="#FA8F54" stroke="#FA8F54" d="M194,50l-6,213l191-30L194,50z"/>
	<path fill="#FB7F4D" stroke="#FB7F4D" d="M194,50l185,183l-1-198L194,50z"/>
	<path fill="#FD8952" stroke="#FD8952" d="M378,35l1,198L480,21L378,35z"/>
	<path fill="#FEA45E" stroke="#FEA45E" d="M480,21L379,233l131,1L480,21z"/>
	<path fill="#FEA963" stroke="#FEA963" d="M480,21l30,213l137-44L480,21z"/>
	<path fill="#FF9D60" stroke="#FF9D60" d="M480,21l167,169l56-135L480,21z"/>
	<path fill="#FFB971" stroke="#FFB971" d="M703,55l-56,135l120,5L703,55z"/>
	<path fill="#FAB16D" stroke="#FAB16D" d="M703,55l64,140l94-115L703,55z"/>
	<path fill="#F2C976" stroke="#F2C976" d="M861,80l-94,115l260,54L861,80z"/>
	<path fill="#ECBB6F" stroke="#ECBB6F" d="M861,80l166,169L985,46L861,80z"/>
	<path fill="#E4C570" stroke="#E4C570" d="M985,46l42,203l87-43L985,46z"/>
	<path fill="#DEB365" stroke="#DEB365" d="M985,46l129,160l59-103L985,46z"/>
	<path fill="#D5C669" stroke="#D5C669" d="M1173,103l-59,103l131,53L1173,103z"/>
	<path fill="#CAB762" stroke="#CAB762" d="M1173,103l72,156l139-148L1173,103z"/>
	<path fill="#C89D57" stroke="#C89D57" d="M1173,103l211,8l-102-90L1173,103z"/>
	<path fill="#BEC268" stroke="#BEC268" d="M1384,111l-139,148l184-9L1384,111z"/>
	<path fill="#B1B362" stroke="#B1B362" d="M1384,111l45,139l102-76L1384,111z"/>
	<path fill="#AB9B58" stroke="#AB9B58" d="M1384,111l147,63l30-109L1384,111z"/>
	<path fill="#9A8E51" stroke="#9A8E51" d="M1561,65l-30,109l162-116L1561,65z"/>
	<path fill="#939E58" stroke="#939E58" d="M1693,58l-162,116l163,73L1693,58z"/>
	<path fill="#84894E" stroke="#84894E" d="M1693,58l1,189l122-202L1693,58z"/>
	<path fill="#809453" stroke="#809453" d="M1816,45l-122,202l207-36L1816,45z"/>
	<path fill="#807645" stroke="#807645" d="M1816,45l85,166l136-158L1816,45z"/>
	<path fill="#808A4D" stroke="#808A4D" d="M2037,53l-136,158l142,64L2037,53z"/>
	<path fill="#D48955" stroke="#D48955" d="M-103,196l-31,659l27-290L-103,196z"/>
	<path fill="#E58B61" stroke="#E58B61" d="M-103,196l-4,369l27-171L-103,196z"/>
	<path fill="#E98556" stroke="#E98556" d="M-103,196l23,198L52,274L-103,196z"/>
	<path fill="#EC9966" stroke="#EC9966" d="M52,274L-80,394l167-27L52,274z"/>
	<path fill="#F29B62" stroke="#F29B62" d="M52,274l35,93l101-104L52,274z"/>
	<path fill="#F5A86B" stroke="#F5A86B" d="M188,263L87,367l129-8L188,263z"/>
	<path fill="#FAB370" stroke="#FAB370" d="M188,263l28,96l132,4L188,263z"/>
	<path fill="#FBB26A" stroke="#FBB26A" d="M188,263l160,100l31-130L188,263z"/>
	<path fill="#FDC476" stroke="#FDC476" d="M379,233l-31,130l146-33L379,233z"/>
	<path fill="#FEC270" stroke="#FEC270" d="M379,233l115,97l16-96L379,233z"/>
	<path fill="#FED682" stroke="#FED682" d="M510,234l-16,96l164,46L510,234z"/>
	<path fill="#FFD27C" stroke="#FFD27C" d="M510,234l148,142l-11-186L510,234z"/>
	<path fill="#FFD981" stroke="#FFD981" d="M647,190l11,186l109-181L647,190z"/>
	<path fill="#FEEA92" stroke="#FEEA92" d="M767,195L658,376l110,20L767,195z"/>
	<path fill="#F4E589" stroke="#F4E589" d="M767,195l1,201l259-147L767,195z"/>
	<path fill="#EEF193" stroke="#EEF193" d="M1027,249L768,396l262-64L1027,249z"/>
	<path fill="#E2E07F" stroke="#E2E07F" d="M1027,249l3,83l84-126L1027,249z"/>
	<path fill="#DDE987" stroke="#DDE987" d="M1114,206l-84,126l129,80L1114,206z"/>
	<path fill="#D6E17D" stroke="#D6E17D" d="M1114,206l45,206l86-153L1114,206z"/>
	<path fill="#D0E985" stroke="#D0E985" d="M1245,259l-86,153l91-58L1245,259z"/>
	<path fill="#C4D879" stroke="#C4D879" d="M1245,259l5,95l179-104L1245,259z"/>
	<path fill="#BBDD81" stroke="#BBDD81" d="M1429,250l-179,104l206,36L1429,250z"/>
	<path fill="#AAD47D" stroke="#AAD47D" d="M1429,250l27,140l152-49L1429,250z"/>
	<path fill="#A6C46C" stroke="#A6C46C" d="M1429,250l179,91l-77-167L1429,250z"/>
	<path fill="#98BD68" stroke="#98BD68" d="M1531,174l77,167l86-94L1531,174z"/>
	<path fill="#8CC777" stroke="#8CC777" d="M1694,247l-86,94l142,66L1694,247z"/>
	<path fill="#80BE71" stroke="#80BE71" d="M1694,247l56,160l175-84L1694,247z"/>
	<path fill="#80AC61" stroke="#80AC61" d="M1694,247l231,76l-24-112L1694,247z"/>
	<path fill="#80A55E" stroke="#80A55E" d="M1901,211l24,112l118-48L1901,211z"/>
	<path fill="#80AC66" stroke="#80AC66" d="M2043,275l-118,48l51,13L2043,275z"/>
	<path fill="#80B36F" stroke="#80B36F" d="M2043,275l-67,61l6,243L2043,275z"/>
	<path fill="#5CAF59" stroke="#5CAF59" d="M2043,275l-61,304l44,398L2043,275z"/>
	<path fill="#23944E" stroke="#23944E" d="M2043,275l-17,702l8,98L2043,275z"/>
	<path fill="#E39461" stroke="#E39461" d="M-80,394l-27,171l213-31L-80,394z"/>
	<path fill="#EE9D69" stroke="#EE9D69" d="M-80,394l186,140L87,367L-80,394z"/>
	<path fill="#F3A86E" stroke="#F3A86E" d="M87,367l19,167l80-67L87,367z"/>
	<path fill="#F5AC70" stroke="#F5AC70" d="M87,367l99,100l30-108L87,367z"/>
	<path fill="#FAB875" stroke="#FAB875" d="M216,359l-30,108l162-104L216,359z"/>
	<path fill="#FBBE78" stroke="#FBBE78" d="M348,363L186,467l163,69L348,363z"/>
	<path fill="#FDCC7F" stroke="#FDCC7F" d="M348,363l1,173l145-206L348,363z"/>
	<path fill="#FCD481" stroke="#FCD481" d="M494,330L349,536l191,32L494,330z"/>
	<path fill="#FEE08B" stroke="#FEE08B" d="M494,330l46,238l118-192L494,330z"/>
	<path fill="#F7E78C" stroke="#F7E78C" d="M658,376L540,568l165-1L658,376z"/>
	<path fill="#FFEF98" stroke="#FFEF98" d="M658,376l47,191l63-171L658,376z"/>
	<path fill="#F6F296" stroke="#F6F296" d="M768,396l-63,171l179-75L768,396z"/>
	<path fill="#F1F599" stroke="#F1F599" d="M768,396l116,96l146-160L768,396z"/>
	<path fill="#ECF799" stroke="#ECF799" d="M1030,332L884,492l73,14L1030,332z"/>
	<path fill="#E4F494" stroke="#E4F494" d="M1030,332l-73,174l155,12L1030,332z"/>
	<path fill="#DDF18F" stroke="#DDF18F" d="M1030,332l82,186l47-106L1030,332z"/>
	<path fill="#D4EE89" stroke="#D4EE89" d="M1159,412l-47,106l120-10L1159,412z"/>
	<path fill="#D1EB88" stroke="#D1EB88" d="M1159,412l73,96l18-154L1159,412z"/>
	<path fill="#C6E787" stroke="#C6E787" d="M1250,354l-18,154l167-2L1250,354z"/>
	<path fill="#BCE286" stroke="#BCE286" d="M1250,354l149,152l57-116L1250,354z"/>
	<path fill="#ABDB82" stroke="#ABDB82" d="M1456,390l-57,116l176,37L1456,390z"/>
	<path fill="#A2D681" stroke="#A2D681" d="M1456,390l119,153l33-202L1456,390z"/>
	<path fill="#95D07D" stroke="#95D07D" d="M1608,341l-33,202l109-10L1608,341z"/>
	<path fill="#8DCC7B" stroke="#8DCC7B" d="M1608,341l76,192l66-126L1608,341z"/>
	<path fill="#7BC575" stroke="#7BC575" d="M1750,407l-66,126l166-2L1750,407z"/>
	<path fill="#80BF75" stroke="#80BF75" d="M1750,407l100,124l75-208L1750,407z"/>
	<path fill="#80B972" stroke="#80B972" d="M1925,323l-75,208l126-195L1925,323z"/>
	<path fill="#7DB86F" stroke="#7DB86F" d="M1976,336l-126,195l132,48L1976,336z"/>
	<path fill="#A07A48" stroke="#A07A48" d="M-107,565l-27,290l51-140L-107,565z"/>
	<path fill="#BC8B4E" stroke="#BC8B4E" d="M-107,565l24,150l127-82L-107,565z"/>
	<path fill="#D29A56" stroke="#D29A56" d="M-107,565l151,68l62-99L-107,565z"/>
	<path fill="#C7A057" stroke="#C7A057" d="M106,534l-62,99l127,98L106,534z"/>
	<path fill="#D7B15E" stroke="#D7B15E" d="M106,534l65,197l178-195L106,534z"/>
	<path fill="#EEB36C" stroke="#EEB36C" d="M106,534l243,2l-163-69L106,534z"/>
	<path fill="#CEB863" stroke="#CEB863" d="M349,536L171,731l203-86L349,536z"/>
	<path fill="#E2CF6D" stroke="#E2CF6D" d="M349,536l25,109l166-77L349,536z"/>
	<path fill="#D2CF6E" stroke="#D2CF6E" d="M540,568l-166,77l120,49L540,568z"/>
	<path fill="#CFD875" stroke="#CFD875" d="M540,568l-46,126l170-17L540,568z"/>
	<path fill="#DDE57D" stroke="#DDE57D" d="M540,568l124,109l41-110L540,568z"/>
	<path fill="#CCE783" stroke="#CCE783" d="M705,567l-41,110l137,41L705,567z"/>
	<path fill="#DBF285" stroke="#DBF285" d="M705,567l96,151l83-226L705,567z"/>
	<path fill="#CEF284" stroke="#CEF284" d="M884,492l-83,226l185-96L884,492z"/>
	<path fill="#DDF78D" stroke="#DDF78D" d="M884,492l102,130l-29-116L884,492z"/>
	<path fill="#D3F587" stroke="#D3F587" d="M957,506l29,116l126-104L957,506z"/>
	<path fill="#BDF07D" stroke="#BDF07D" d="M1112,518L986,622l128,62L1112,518z"/>
	<path fill="#C0EE7B" stroke="#C0EE7B" d="M1112,518l2,166l118-176L1112,518z"/>
	<path fill="#A7E673" stroke="#A7E673" d="M1232,508l-118,176l173,16L1232,508z"/>
	<path fill="#ACE676" stroke="#ACE676" d="M1232,508l55,192l112-194L1232,508z"/>
	<path fill="#93DD70" stroke="#93DD70" d="M1399,506l-112,194l120-16L1399,506z"/>
	<path fill="#96DD72" stroke="#96DD72" d="M1399,506l8,178l168-141L1399,506z"/>
	<path fill="#7ED36C" stroke="#7ED36C" d="M1575,543l-168,141l218-66L1575,543z"/>
	<path fill="#7ED06D" stroke="#7ED06D" d="M1575,543l50,75l59-85L1575,543z"/>
	<path fill="#68C967" stroke="#68C967" d="M1684,533l-59,85l63,91L1684,533z"/>
	<path fill="#66C765" stroke="#66C765" d="M1684,533l4,176l162-178L1684,533z"/>
	<path fill="#4FB960" stroke="#4FB960" d="M1850,531l-162,178l217,1L1850,531z"/>
	<path fill="#5DB75E" stroke="#5DB75E" d="M1850,531l55,179l77-131L1850,531z"/>
	<path fill="#49AD5A" stroke="#49AD5A" d="M1982,579l-77,131l71,6L1982,579z"/>
	<path fill="#2A9B52" stroke="#2A9B52" d="M1982,579l-6,137l50,261L1982,579z"/>
	<path fill="#8B7645" stroke="#8B7645" d="M-83,715l-51,140l226-88L-83,715z"/>
	<path fill="#A98B50" stroke="#A98B50" d="M-83,715l175,52L44,633L-83,715z"/>
	<path fill="#AD9554" stroke="#AD9554" d="M44,633l48,134l79-36L44,633z"/>
	<path fill="#9A9051" stroke="#9A9051" d="M171,731l-79,36l109,45L171,731z"/>
	<path fill="#9B9A56" stroke="#9B9A56" d="M171,731l30,81l159-13L171,731z"/>
	<path fill="#B1AC5F" stroke="#B1AC5F" d="M171,731l189,68l14-154L171,731z"/>
	<path fill="#B7BD67" stroke="#B7BD67" d="M374,645l-14,154l134-105L374,645z"/>
	<path fill="#9DB562" stroke="#9DB562" d="M494,694L360,799l151,72L494,694z"/>
	<path fill="#9FC36C" stroke="#9FC36C" d="M494,694l17,177l199-83L494,694z"/>
	<path fill="#B7D477" stroke="#B7D477" d="M494,694l216,94l-46-111L494,694z"/>
	<path fill="#B3DD7F" stroke="#B3DD7F" d="M664,677l46,111l91-70L664,677z"/>
	<path fill="#9CD379" stroke="#9CD379" d="M801,718l-91,70l55,63L801,718z"/>
	<path fill="#8AD076" stroke="#8AD076" d="M801,718l-36,133l208,29L801,718z"/>
	<path fill="#A0E17D" stroke="#A0E17D" d="M801,718l172,162l13-258L801,718z"/>
	<path fill="#8BD976" stroke="#8BD976" d="M986,622l-13,258l116-65L986,622z"/>
	<path fill="#9EE47A" stroke="#9EE47A" d="M986,622l103,193l25-131L986,622z"/>
	<path fill="#79D16C" stroke="#79D16C" d="M1114,684l-25,131l160,35L1114,684z"/>
	<path fill="#80D56C" stroke="#80D56C" d="M1114,684l135,166l38-150L1114,684z"/>
	<path fill="#5FC566" stroke="#5FC566" d="M1287,700l-38,150h138L1287,700z"/>
	<path fill="#6CCC6A" stroke="#6CCC6A" d="M1287,700l100,150l20-166L1287,700z"/>
	<path fill="#4BBC63" stroke="#4BBC63" d="M1407,684l-20,166l247-7L1407,684z"/>
	<path fill="#5AC567" stroke="#5AC567" d="M1407,684l227,159l-9-225L1407,684z"/>
	<path fill="#48BC63" stroke="#48BC63" d="M1625,618l9,225l54-134L1625,618z"/>
	<path fill="#24AA5A" stroke="#24AA5A" d="M1688,709l-54,134l139,6L1688,709z"/>
	<path fill="#2AAB5A" stroke="#2AAB5A" d="M1688,709l85,140l132-139L1688,709z"/>
	<path fill="#1B9F54" stroke="#1B9F54" d="M1905,710l-132,139l85-12L1905,710z"/>
	<path fill="#1C9A52" stroke="#1C9A52" d="M1905,710l-47,127l120-1L1905,710z"/>
	<path fill="#2B9F54" stroke="#2B9F54" d="M1905,710l73,126l-2-120L1905,710z"/>
	<path fill="#0B8B49" stroke="#0B8B49" d="M1976,716l2,120l48,141L1976,716z"/>
	<path fill="#66432B" stroke="#66432B" d="M-134,855l18,312l88-141L-134,855z"/>
	<path fill="#6A653C" stroke="#6A653C" d="M-134,855l106,171L92,767L-134,855z"/>
	<path fill="#6F643C" stroke="#6F643C" d="M92,767l-120,259l132-8L92,767z"/>
	<path fill="#737443" stroke="#737443" d="M92,767l12,251l72-103L92,767z"/>
	<path fill="#84854B" stroke="#84854B" d="M92,767l84,148l25-103L92,767z"/>
	<path fill="#7A844A" stroke="#7A844A" d="M201,812l-25,103l143,24L201,812z"/>
	<path fill="#839352" stroke="#839352" d="M201,812l118,127l41-140L201,812z"/>
	<path fill="#7E9E57" stroke="#7E9E57" d="M360,799l-41,140l192-68L360,799z"/>
	<path fill="#7E9B55" stroke="#7E9B55" d="M511,871l-192,68l194,13L511,871z"/>
	<path fill="#7FA75D" stroke="#7FA75D" d="M511,871l2,81l115-7L511,871z"/>
	<path fill="#80B768" stroke="#80B768" d="M511,871l117,74l82-157L511,871z"/>
	<path fill="#83C270" stroke="#83C270" d="M710,788l-82,157l137-94L710,788z"/>
	<path fill="#7FB76B" stroke="#7FB76B" d="M765,851l-137,94l167,46L765,851z"/>
	<path fill="#77BA6B" stroke="#77BA6B" d="M765,851l30,140l134-38L765,851z"/>
	<path fill="#72C36E" stroke="#72C36E" d="M765,851l164,102l44-73L765,851z"/>
	<path fill="#66BC67" stroke="#66BC67" d="M973,880l-44,73l228,6L973,880z"/>
	<path fill="#61C267" stroke="#61C267" d="M973,880l184,79l-68-144L973,880z"/>
	<path fill="#57BF62" stroke="#57BF62" d="M1089,815l68,144l92-109L1089,815z"/>
	<path fill="#4FB55C" stroke="#4FB55C" d="M1249,850l-92,109l141-39L1249,850z"/>
	<path fill="#44B75E" stroke="#44B75E" d="M1249,850l49,70l89-70H1249z"/>
	<path fill="#3AA858" stroke="#3AA858" d="M1387,850l-89,70l175,109L1387,850z"/>
	<path fill="#309F53" stroke="#309F53" d="M1387,850l86,179l52-45L1387,850z"/>
	<path fill="#27A658" stroke="#27A658" d="M1387,850l138,134l109-141L1387,850z"/>
	<path fill="#18974F" stroke="#18974F" d="M1634,843l-109,141l148-7L1634,843z"/>
	<path fill="#0B9951" stroke="#0B9951" d="M1634,843l39,134l100-128L1634,843z"/>
	<path fill="#008647" stroke="#008647" d="M1773,849l-100,128l257,56L1773,849z"/>
	<path fill="#008A49" stroke="#008A49" d="M1773,849l157,184l-72-196L1773,849z"/>
	<path fill="#008647" stroke="#008647" d="M1858,837l72,196l48-197L1858,837z"/>
	<path fill="#007840" stroke="#007840" d="M1978,836l-48,197l96-56L1978,836z"/>
	<path fill="#6A3B27" stroke="#6A3B27" d="M-28,1026l-88,141l170-62L-28,1026z"/>
	<path fill="#6E4E30" stroke="#6E4E30" d="M-28,1026l82,79l50-87L-28,1026z"/>
	<path fill="#735231" stroke="#735231" d="M104,1018l-50,87l149,10L104,1018z"/>
	<path fill="#75633A" stroke="#75633A" d="M104,1018l99,97l-27-200L104,1018z"/>
	<path fill="#7A7140" stroke="#7A7140" d="M176,915l27,200l116-176L176,915z"/>
	<path fill="#7B6B3D" stroke="#7B6B3D" d="M319,939l-116,176l171,40L319,939z"/>
	<path fill="#7D8348" stroke="#7D8348" d="M319,939l55,216l139-203L319,939z"/>
	<path fill="#7F8248" stroke="#7F8248" d="M513,952l-139,203l162-50L513,952z"/>
	<path fill="#7F9956" stroke="#7F9956" d="M513,952l23,153l92-160L513,952z"/>
	<path fill="#7F9455" stroke="#7F9455" d="M628,945l-92,160h111L628,945z"/>
	<path fill="#7FA460" stroke="#7FA460" d="M628,945l19,160l148-114L628,945z"/>
	<path fill="#7B9D5D" stroke="#7B9D5D" d="M795,991l-148,114l217,28L795,991z"/>
	<path fill="#74A961" stroke="#74A961" d="M795,991l69,142l65-180L795,991z"/>
	<path fill="#6FA35D" stroke="#6FA35D" d="M929,953l-65,180l122-3L929,953z"/>
	<path fill="#66AC5E" stroke="#66AC5E" d="M929,953l57,177l171-171L929,953z"/>
	<path fill="#5DA054" stroke="#5DA054" d="M1157,959l-171,171l183-44L1157,959z"/>
	<path fill="#52A855" stroke="#52A855" d="M1157,959l12,127l129-166L1157,959z"/>
	<path fill="#4C9B4F" stroke="#4C9B4F" d="M1298,920l-129,166l134,29L1298,920z"/>
	<path fill="#3E994F" stroke="#3E994F" d="M1298,920l5,195l170-86L1298,920z"/>
	<path fill="#3A8746" stroke="#3A8746" d="M1473,1029l-170,86l85,64L1473,1029z"/>
	<path fill="#2D8345" stroke="#2D8345" d="M1473,1029l-85,150l192-98L1473,1029z"/>
	<path fill="#268C49" stroke="#268C49" d="M1473,1029l107,52l-55-97L1473,1029z"/>
	<path fill="#1B8A49" stroke="#1B8A49" d="M1525,984l55,97l93-104L1525,984z"/>
	<path fill="#147E42" stroke="#147E42" d="M1673,977l-93,104l88,37L1673,977z"/>
	<path fill="#01783F" stroke="#01783F" d="M1673,977l-5,141l262-85L1673,977z"/>
	<path fill="#006736" stroke="#006736" d="M1930,1033l-262,85l200,54L1930,1033z"/>
	<path fill="#006033" stroke="#006033" d="M1930,1033l-62,139l166-97L1930,1033z"/>
	<path fill="#006837" stroke="#006837" d="M1930,1033l104,42l-8-98L1930,1033z"/>
	<path fill="#7F7845" stroke="#7F7845" d="M-116,1167l1504,12l-1014-24L-116,1167z"/>
	<path fill="#754A2D" stroke="#754A2D" d="M-116,1167l490-12l-171-40L-116,1167z"/>
	<path fill="#6F4028" stroke="#6F4028" d="M-116,1167l319-52l-149-10L-116,1167z"/>
	<path fill="#739255" stroke="#739255" d="M374,1155l1014,24l-524-46L374,1155z"/>
	<path fill="#7F884F" stroke="#7F884F" d="M374,1155l490-22l-217-28L374,1155z"/>
	<path fill="#7F7E47" stroke="#7F7E47" d="M374,1155l273-50H536L374,1155z"/>
	<path fill="#60904E" stroke="#60904E" d="M864,1133l524,46l-402-49L864,1133z"/>
	<path fill="#558F48" stroke="#558F48" d="M986,1130l402,49l-219-93L986,1130z"/>
	<path fill="#488A46" stroke="#488A46" d="M1169,1086l219,93l-85-64L1169,1086z"/>
	<path fill="#136B39" stroke="#136B39" d="M1388,1179l480-7l-200-54L1388,1179z"/>
	<path fill="#237940" stroke="#237940" d="M1388,1179l280-61l-88-37L1388,1179z"/>
</g>
</svg>
